<svg width="1920" height="295" viewBox="0 0 1920 295" fill="none" xmlns="http://www.w3.org/2000/svg">
<path fill-rule="evenodd" clip-rule="evenodd" d="M908.352 59.7503V71.2051H903.93C903.934 69.337 904.068 67.7533 904.069 67.7367L904.086 67.5368L903.792 67.779C900.463 70.5797 896.049 72 890.672 72C877.511 72 874 64.984 874 60.8383C874 56.977 877.572 49.676 891.092 49.676C899.587 49.676 905.639 53.2009 905.472 53.0518L903.34 57.6235C903.34 57.6235 898.242 54.5784 891.092 54.5784C883.145 54.5784 880.26 57.9451 880.26 60.8383C880.26 63.731 882.775 67.0982 890.672 67.0982C894.809 67.0982 898.486 66.0377 900.759 64.1878L900.944 64.0382H895.809V59.7503H908.352ZM1026.52 67.0469C1019.01 67.0469 1016.36 63.2444 1016.36 60.6887C1016.36 56.3203 1021.59 54.33 1026.52 54.33C1033.25 54.33 1036.68 57.5288 1036.68 60.6887C1036.68 65.0737 1030.77 67.0469 1026.52 67.0469ZM1037.68 52.3608C1034.63 50.5327 1030.72 49.5264 1026.52 49.5264C1022.32 49.5264 1018.41 50.5327 1015.36 52.3608C1011.97 54.3968 1010.1 57.3545 1010.1 60.6887C1010.1 64.0222 1011.97 66.98 1015.36 69.0166C1018.41 70.8441 1022.32 71.8498 1026.52 71.8498C1030.72 71.8498 1034.63 70.8441 1037.68 69.0166C1041.07 66.98 1042.94 64.0222 1042.94 60.6887C1042.94 57.3545 1041.07 54.3968 1037.68 52.3608ZM1067.47 58.8011H1052.56V55.3191H1067.47C1068.42 55.3191 1069.19 56.0998 1069.19 57.0598C1069.19 58.0199 1068.42 58.8011 1067.47 58.8011ZM1068.84 66.5773H1052.56V63.0959H1068.84C1069.79 63.0959 1070.57 63.8766 1070.57 64.8366C1070.57 65.7966 1069.79 66.5773 1068.84 66.5773ZM1046.98 71.2051H1068.98C1073 71.2051 1075.93 68.5431 1075.93 64.8755C1075.93 63.1136 1075.12 61.4049 1073.72 60.1872L1073.66 60.141L1073.7 60.0799C1074.25 59.1376 1074.55 58.0781 1074.55 57.0142C1074.55 53.6423 1071.42 50.6851 1067.85 50.6851H1046.98V71.2051ZM1102.24 71.2051H1108.16V55.4882H1118V50.6851H1092.4V55.4882H1102.24V71.2051ZM1081.35 71.2051H1087.61V50.6846H1081.35V71.2051ZM953.964 71.2051H959.889V55.4882H969.728V50.6851H944.125V55.4882H953.964V71.2051ZM913.868 71.2051H940.13V66.4015H919.456V63.0959H939.794V58.8012H919.456V55.4882H940.13V50.6851H913.868V71.2051ZM1000.35 71.2051H1006.28V50.6851H997.682L990.058 66.406L982.433 50.6851H973.676V71.2051H979.6V55.5047L987.042 71.2051H993.137L1000.35 56.0147V71.2051Z" fill="#4B4B4B"/>
<path d="M528.212 72.72C525.884 72.72 523.808 72.168 521.984 71.064C520.184 69.96 518.792 68.448 517.808 66.528C516.824 64.608 516.332 62.472 516.332 60.12C516.332 57.768 516.824 55.632 517.808 53.712C518.792 51.792 520.184 50.28 521.984 49.176C523.808 48.072 525.884 47.52 528.212 47.52C530.54 47.52 532.604 48.072 534.404 49.176C536.204 50.28 537.596 51.792 538.58 53.712C539.564 55.632 540.056 57.768 540.056 60.12C540.056 62.472 539.564 64.608 538.58 66.528C537.596 68.448 536.204 69.96 534.404 71.064C532.604 72.168 530.54 72.72 528.212 72.72ZM528.212 71.1C530.396 71.1 532.088 70.152 533.288 68.256C534.488 66.336 535.088 63.624 535.088 60.12C535.088 56.616 534.488 53.916 533.288 52.02C532.088 50.1 530.396 49.14 528.212 49.14C526.028 49.14 524.336 50.1 523.136 52.02C521.96 53.916 521.372 56.616 521.372 60.12C521.372 63.624 521.96 66.336 523.136 68.256C524.336 70.152 526.028 71.1 528.212 71.1ZM547.774 56.7H546.694C545.566 56.7 544.714 57 544.138 57.6C543.562 58.2 543.274 59.16 543.274 60.48H542.194V57.96C542.194 56.04 543.094 55.08 544.894 55.08H557.89V56.7H552.454V72H547.774V56.7ZM569.871 59.76C569.871 58.536 569.703 57.636 569.367 57.06C569.031 56.46 568.359 56.16 567.351 56.16H567.171V55.08H576.819C579.051 55.08 580.815 55.452 582.111 56.196C583.431 56.94 584.091 58.008 584.091 59.4C584.091 60.456 583.695 61.308 582.903 61.956C582.111 62.58 580.983 62.988 579.519 63.18C581.127 63.396 582.411 63.864 583.371 64.584C584.331 65.28 584.811 66.192 584.811 67.32C584.811 70.44 582.147 72 576.819 72H569.871V59.76ZM575.811 62.28C576.771 62.28 577.575 62.028 578.223 61.524C578.895 60.996 579.231 60.288 579.231 59.4C579.231 58.464 578.919 57.756 578.295 57.276C577.695 56.772 576.987 56.52 576.171 56.52C575.595 56.52 575.055 56.604 574.551 56.772V62.28H575.811ZM576.171 70.56C577.299 70.56 578.211 70.284 578.907 69.732C579.603 69.156 579.951 68.352 579.951 67.32C579.951 66.192 579.579 65.34 578.835 64.764C578.115 64.188 577.107 63.9 575.811 63.9H574.551V70.308C575.055 70.476 575.595 70.56 576.171 70.56ZM596.022 72.36C594.174 72.36 592.602 71.964 591.306 71.172C590.01 70.38 589.026 69.324 588.354 68.004C587.706 66.66 587.382 65.172 587.382 63.54C587.382 61.908 587.706 60.432 588.354 59.112C589.026 57.768 590.01 56.7 591.306 55.908C592.602 55.116 594.174 54.72 596.022 54.72C598.902 54.72 600.762 55.14 601.602 55.98C602.01 56.388 602.262 56.928 602.358 57.6C602.454 58.272 602.502 59.412 602.502 61.02H601.422C601.326 59.508 600.858 58.356 600.018 57.564C599.178 56.748 598.026 56.34 596.562 56.34C595.242 56.34 594.186 56.952 593.394 58.176C592.626 59.376 592.242 61.164 592.242 63.54C592.242 68.34 593.742 70.74 596.742 70.74C597.894 70.74 598.854 70.488 599.622 69.984C600.414 69.456 601.17 68.712 601.89 67.752L603.006 68.58C602.31 69.66 601.434 70.56 600.378 71.28C599.322 72 597.87 72.36 596.022 72.36ZM613.557 72.36C611.901 72.36 610.449 71.976 609.201 71.208C607.953 70.44 606.981 69.396 606.285 68.076C605.613 66.732 605.277 65.22 605.277 63.54C605.277 61.668 605.613 60.072 606.285 58.752C606.981 57.432 607.929 56.436 609.129 55.764C610.329 55.068 611.685 54.72 613.197 54.72C614.685 54.72 616.029 55.02 617.229 55.62C618.429 56.22 619.377 57.072 620.073 58.176C620.769 59.256 621.117 60.504 621.117 61.92C621.117 62.376 621.093 62.892 621.045 63.468L620.973 64.188H610.137C610.137 66.468 610.485 68.136 611.181 69.192C611.877 70.224 612.849 70.74 614.097 70.74C615.249 70.74 616.209 70.488 616.977 69.984C617.769 69.456 618.525 68.712 619.245 67.752L620.361 68.58C619.665 69.66 618.789 70.56 617.733 71.28C616.701 72 615.309 72.36 613.557 72.36ZM616.257 62.568C616.257 60.312 615.993 58.716 615.465 57.78C614.937 56.82 614.181 56.34 613.197 56.34C612.285 56.34 611.541 56.832 610.965 57.816C610.413 58.776 610.137 60.36 610.137 62.568H616.257ZM624.926 59.76C624.926 58.536 624.758 57.636 624.422 57.06C624.086 56.46 623.414 56.16 622.406 56.16H622.226V55.08H634.646C636.446 55.08 637.346 56.04 637.346 57.96V60.48H636.266C636.266 59.16 635.978 58.2 635.402 57.6C634.826 57 633.974 56.7 632.846 56.7H629.606V72H624.926V59.76ZM646.577 72.36C644.825 72.36 643.289 71.976 641.969 71.208C640.673 70.416 639.677 69.36 638.981 68.04C638.285 66.696 637.937 65.196 637.937 63.54C637.937 61.884 638.285 60.396 638.981 59.076C639.677 57.732 640.673 56.676 641.969 55.908C643.289 55.116 644.825 54.72 646.577 54.72C648.329 54.72 649.853 55.116 651.149 55.908C652.469 56.676 653.477 57.732 654.173 59.076C654.869 60.396 655.217 61.884 655.217 63.54C655.217 65.196 654.869 66.696 654.173 68.04C653.477 69.36 652.469 70.416 651.149 71.208C649.853 71.976 648.329 72.36 646.577 72.36ZM646.577 70.74C647.801 70.74 648.737 70.08 649.385 68.76C650.033 67.44 650.357 65.7 650.357 63.54C650.357 61.38 650.033 59.64 649.385 58.32C648.737 57 647.801 56.34 646.577 56.34C645.353 56.34 644.417 57 643.769 58.32C643.121 59.64 642.797 61.38 642.797 63.54C642.797 65.7 643.121 67.44 643.769 68.76C644.417 70.08 645.353 70.74 646.577 70.74ZM681.848 72.36C680.792 72.36 679.82 72.144 678.932 71.712C678.068 71.256 677.252 70.512 676.484 69.48L673.028 64.944V72H668.348V59.76C668.348 58.536 668.18 57.636 667.844 57.06C667.508 56.46 666.836 56.16 665.828 56.16H665.468V55.08H669.788C670.652 55.08 671.312 55.224 671.768 55.512C672.224 55.8 672.548 56.28 672.74 56.952C672.932 57.6 673.028 58.536 673.028 59.76V63.18L677.384 57.852C678.2 56.868 678.968 56.16 679.688 55.728C680.408 55.296 681.368 55.08 682.568 55.08H683.288V56.016C682.568 56.016 681.92 56.16 681.344 56.448C680.768 56.736 680.216 57.192 679.688 57.816L676.196 62.064L680.984 68.4C682.136 69.96 683.252 70.872 684.332 71.136V72C684.14 72.096 683.792 72.18 683.288 72.252C682.784 72.324 682.304 72.36 681.848 72.36ZM693.124 72.36C691.372 72.36 689.836 71.976 688.516 71.208C687.22 70.416 686.224 69.36 685.528 68.04C684.832 66.696 684.484 65.196 684.484 63.54C684.484 61.884 684.832 60.396 685.528 59.076C686.224 57.732 687.22 56.676 688.516 55.908C689.836 55.116 691.372 54.72 693.124 54.72C694.876 54.72 696.4 55.116 697.696 55.908C699.016 56.676 700.024 57.732 700.72 59.076C701.416 60.396 701.764 61.884 701.764 63.54C701.764 65.196 701.416 66.696 700.72 68.04C700.024 69.36 699.016 70.416 697.696 71.208C696.4 71.976 694.876 72.36 693.124 72.36ZM693.124 70.74C694.348 70.74 695.284 70.08 695.932 68.76C696.58 67.44 696.904 65.7 696.904 63.54C696.904 61.38 696.58 59.64 695.932 58.32C695.284 57 694.348 56.34 693.124 56.34C691.9 56.34 690.964 57 690.316 58.32C689.668 59.64 689.344 61.38 689.344 63.54C689.344 65.7 689.668 67.44 690.316 68.76C690.964 70.08 691.9 70.74 693.124 70.74ZM704.759 72.54C704.399 72.54 704.003 72.504 703.571 72.432C703.139 72.36 702.815 72.288 702.599 72.216V71.172C703.535 71.028 704.327 70.62 704.975 69.948C705.623 69.252 706.139 68.064 706.523 66.384C706.931 64.68 707.135 62.352 707.135 59.4C707.135 58.344 706.943 57.54 706.559 56.988C706.199 56.436 705.491 56.16 704.435 56.16V55.08H720.635V72H715.955V56.7H710.879V59.4C710.879 68.16 708.839 72.54 704.759 72.54ZM725.185 72.54C724.825 72.54 724.429 72.504 723.997 72.432C723.565 72.36 723.241 72.288 723.025 72.216V71.172C723.961 71.028 724.753 70.62 725.401 69.948C726.049 69.252 726.565 68.064 726.949 66.384C727.357 64.68 727.561 62.352 727.561 59.4C727.561 58.344 727.369 57.54 726.985 56.988C726.625 56.436 725.917 56.16 724.861 56.16V55.08H741.061V72H736.381V56.7H731.305V59.4C731.305 68.16 729.265 72.54 725.185 72.54ZM752.846 72.36C751.19 72.36 749.738 71.976 748.49 71.208C747.242 70.44 746.27 69.396 745.574 68.076C744.902 66.732 744.566 65.22 744.566 63.54C744.566 61.668 744.902 60.072 745.574 58.752C746.27 57.432 747.218 56.436 748.418 55.764C749.618 55.068 750.974 54.72 752.486 54.72C753.974 54.72 755.318 55.02 756.518 55.62C757.718 56.22 758.666 57.072 759.362 58.176C760.058 59.256 760.406 60.504 760.406 61.92C760.406 62.376 760.382 62.892 760.334 63.468L760.262 64.188H749.426C749.426 66.468 749.774 68.136 750.47 69.192C751.166 70.224 752.138 70.74 753.386 70.74C754.538 70.74 755.498 70.488 756.266 69.984C757.058 69.456 757.814 68.712 758.534 67.752L759.65 68.58C758.954 69.66 758.078 70.56 757.022 71.28C755.99 72 754.598 72.36 752.846 72.36ZM755.546 62.568C755.546 60.312 755.282 58.716 754.754 57.78C754.226 56.82 753.47 56.34 752.486 56.34C751.574 56.34 750.83 56.832 750.254 57.816C749.702 58.776 749.426 60.36 749.426 62.568H755.546ZM777.895 72.36C776.839 72.36 775.867 72.144 774.979 71.712C774.115 71.256 773.299 70.512 772.531 69.48L769.075 64.944V72H764.395V59.76C764.395 58.536 764.227 57.636 763.891 57.06C763.555 56.46 762.883 56.16 761.875 56.16H761.515V55.08H765.835C766.699 55.08 767.359 55.224 767.815 55.512C768.271 55.8 768.595 56.28 768.787 56.952C768.979 57.6 769.075 58.536 769.075 59.76V63.18L773.431 57.852C774.247 56.868 775.015 56.16 775.735 55.728C776.455 55.296 777.415 55.08 778.615 55.08H779.335V56.016C778.615 56.016 777.967 56.16 777.391 56.448C776.815 56.736 776.263 57.192 775.735 57.816L772.243 62.064L777.031 68.4C778.183 69.96 779.299 70.872 780.379 71.136V72C780.187 72.096 779.839 72.18 779.335 72.252C778.831 72.324 778.351 72.36 777.895 72.36ZM786.802 56.7H785.722C784.594 56.7 783.742 57 783.166 57.6C782.59 58.2 782.302 59.16 782.302 60.48H781.222V57.96C781.222 56.04 782.122 55.08 783.922 55.08H796.918V56.7H791.482V72H786.802V56.7ZM800.078 59.76C800.078 58.536 799.91 57.636 799.574 57.06C799.238 56.46 798.566 56.16 797.558 56.16H797.198V55.08H801.518C802.382 55.08 803.042 55.224 803.498 55.512C803.954 55.8 804.278 56.28 804.47 56.952C804.662 57.6 804.758 58.536 804.758 59.76V67.5L811.238 55.08H815.558V72H810.878V59.58L804.398 72H800.078V59.76ZM820.394 59.76C820.394 58.536 820.226 57.636 819.89 57.06C819.554 56.46 818.882 56.16 817.874 56.16H817.694V55.08H827.342C829.574 55.08 831.338 55.452 832.634 56.196C833.954 56.94 834.614 58.008 834.614 59.4C834.614 60.456 834.218 61.308 833.426 61.956C832.634 62.58 831.506 62.988 830.042 63.18C831.65 63.396 832.934 63.864 833.894 64.584C834.854 65.28 835.334 66.192 835.334 67.32C835.334 70.44 832.67 72 827.342 72H820.394V59.76ZM826.334 62.28C827.294 62.28 828.098 62.028 828.746 61.524C829.418 60.996 829.754 60.288 829.754 59.4C829.754 58.464 829.442 57.756 828.818 57.276C828.218 56.772 827.51 56.52 826.694 56.52C826.118 56.52 825.578 56.604 825.074 56.772V62.28H826.334ZM826.694 70.56C827.822 70.56 828.734 70.284 829.43 69.732C830.126 69.156 830.474 68.352 830.474 67.32C830.474 66.192 830.102 65.34 829.358 64.764C828.638 64.188 827.63 63.9 826.334 63.9H825.074V70.308C825.578 70.476 826.118 70.56 826.694 70.56ZM843.773 72.36C841.829 72.36 840.317 71.928 839.237 71.064C838.181 70.176 837.653 68.988 837.653 67.5C837.653 66.3 837.929 65.304 838.481 64.512C839.057 63.72 840.053 63.12 841.469 62.712C842.885 62.304 844.853 62.1 847.373 62.1H847.913C847.913 60.012 847.625 58.536 847.049 57.672C846.473 56.784 845.621 56.34 844.493 56.34C843.557 56.34 842.789 56.568 842.189 57.024C841.589 57.48 841.157 58.332 840.893 59.58H838.913C838.913 58.764 838.961 58.068 839.057 57.492C839.177 56.916 839.429 56.412 839.813 55.98C840.557 55.14 842.357 54.72 845.213 54.72C847.613 54.72 849.437 55.356 850.685 56.628C851.957 57.876 852.593 59.76 852.593 62.28V72H849.533L848.273 70.38H848.093C847.877 70.716 847.541 71.052 847.085 71.388C846.269 72.036 845.165 72.36 843.773 72.36ZM844.853 70.56C845.357 70.56 845.789 70.464 846.149 70.272C846.509 70.056 846.857 69.768 847.193 69.408C847.505 69.072 847.745 68.676 847.913 68.22V63.72H847.373C845.669 63.72 844.433 64.032 843.665 64.656C842.897 65.256 842.513 66.204 842.513 67.5C842.513 68.484 842.717 69.24 843.125 69.768C843.533 70.296 844.109 70.56 844.853 70.56Z" fill="#4B4B4B"/>
<path d="M1139.66 59.76C1139.66 58.536 1139.5 57.636 1139.16 57.06C1138.82 56.46 1138.15 56.16 1137.14 56.16H1136.96V55.08H1154.78V72H1150.1V56.7H1144.34V72H1139.66V59.76ZM1166.87 72.36C1165.12 72.36 1163.58 71.976 1162.26 71.208C1160.97 70.416 1159.97 69.36 1159.27 68.04C1158.58 66.696 1158.23 65.196 1158.23 63.54C1158.23 61.884 1158.58 60.396 1159.27 59.076C1159.97 57.732 1160.97 56.676 1162.26 55.908C1163.58 55.116 1165.12 54.72 1166.87 54.72C1168.62 54.72 1170.15 55.116 1171.44 55.908C1172.76 56.676 1173.77 57.732 1174.47 59.076C1175.16 60.396 1175.51 61.884 1175.51 63.54C1175.51 65.196 1175.16 66.696 1174.47 68.04C1173.77 69.36 1172.76 70.416 1171.44 71.208C1170.15 71.976 1168.62 72.36 1166.87 72.36ZM1166.87 70.74C1168.09 70.74 1169.03 70.08 1169.68 68.76C1170.33 67.44 1170.65 65.7 1170.65 63.54C1170.65 61.38 1170.33 59.64 1169.68 58.32C1169.03 57 1168.09 56.34 1166.87 56.34C1165.65 56.34 1164.71 57 1164.06 58.32C1163.41 59.64 1163.09 61.38 1163.09 63.54C1163.09 65.7 1163.41 67.44 1164.06 68.76C1164.71 70.08 1165.65 70.74 1166.87 70.74ZM1184.54 72.36C1181.58 72.36 1179.36 71.4 1177.88 69.48L1178.96 68.58C1180.11 70.02 1181.61 70.74 1183.46 70.74C1184.61 70.74 1185.52 70.476 1186.19 69.948C1186.89 69.42 1187.24 68.604 1187.24 67.5C1187.24 66.324 1186.91 65.46 1186.26 64.908C1185.64 64.356 1184.52 64.08 1182.92 64.08H1181.12V62.46H1182.92C1184.33 62.46 1185.32 62.232 1185.87 61.776C1186.42 61.296 1186.7 60.504 1186.7 59.4C1186.7 58.392 1186.38 57.636 1185.76 57.132C1185.14 56.604 1184.37 56.34 1183.46 56.34C1182.38 56.34 1181.46 56.712 1180.72 57.456C1179.98 58.176 1179.57 59.124 1179.5 60.3H1178.42C1178.42 59.052 1178.46 58.128 1178.56 57.528C1178.66 56.904 1178.91 56.388 1179.32 55.98C1179.75 55.548 1180.41 55.236 1181.3 55.044C1182.18 54.828 1183.2 54.72 1184.36 54.72C1186.59 54.72 1188.34 55.116 1189.61 55.908C1190.91 56.676 1191.56 57.84 1191.56 59.4C1191.56 60.456 1191.16 61.332 1190.37 62.028C1189.6 62.724 1188.56 63.168 1187.24 63.36C1188.72 63.552 1189.9 64.02 1190.76 64.764C1191.65 65.508 1192.1 66.42 1192.1 67.5C1192.1 69.156 1191.44 70.38 1190.12 71.172C1188.8 71.964 1186.94 72.36 1184.54 72.36ZM1193.26 71.64C1193.26 71.28 1193.38 70.98 1193.62 70.74C1193.86 70.5 1194.16 70.38 1194.52 70.38H1195.81C1196.58 68.7 1197.13 66.912 1197.47 65.016C1197.81 63.096 1197.97 61.224 1197.97 59.4C1197.97 58.344 1197.79 57.54 1197.43 56.988C1197.07 56.436 1196.35 56.16 1195.27 56.16V55.08H1211.29V70.38H1212.37C1212.73 70.38 1213.03 70.5 1213.27 70.74C1213.51 70.98 1213.63 71.28 1213.63 71.64V77.76H1211.83C1211.71 76.224 1211.49 75.036 1211.15 74.196C1210.81 73.38 1210.37 72.804 1209.82 72.468C1209.29 72.156 1208.62 72 1207.8 72H1199.09C1198.27 72 1197.59 72.156 1197.04 72.468C1196.51 72.804 1196.08 73.38 1195.74 74.196C1195.41 75.036 1195.18 76.224 1195.06 77.76H1193.26V71.64ZM1206.61 70.38V56.7H1201.54C1201.54 59.796 1201.38 62.412 1201.07 64.548C1200.78 66.66 1200.28 68.604 1199.56 70.38H1206.61ZM1216.8 59.76C1216.8 58.536 1216.63 57.636 1216.3 57.06C1215.99 56.46 1215.33 56.16 1214.32 56.16H1213.96V55.08H1217.52C1218.36 55.08 1219.01 55.2 1219.47 55.44C1219.92 55.656 1220.28 56.04 1220.55 56.592C1221.96 55.344 1223.59 54.72 1225.44 54.72C1227.87 54.72 1229.73 55.548 1231.02 57.204C1232.34 58.836 1233 60.948 1233 63.54C1233 66.132 1232.33 68.256 1230.99 69.912C1229.67 71.544 1227.76 72.36 1225.26 72.36C1224.28 72.36 1223.35 72.18 1222.49 71.82C1222.11 71.676 1221.77 71.496 1221.48 71.28V78.84H1216.8V59.76ZM1224.54 70.74C1226.94 70.74 1228.14 68.34 1228.14 63.54C1228.14 61.332 1227.87 59.58 1227.31 58.284C1226.76 56.988 1225.9 56.34 1224.72 56.34C1223.38 56.34 1222.21 56.832 1221.23 57.816L1221.34 58.32C1221.43 58.608 1221.48 59.016 1221.48 59.544V69.66C1221.75 69.876 1222.03 70.056 1222.35 70.2C1223.02 70.56 1223.75 70.74 1224.54 70.74ZM1241.51 72.36C1239.57 72.36 1238.06 71.928 1236.98 71.064C1235.92 70.176 1235.39 68.988 1235.39 67.5C1235.39 66.3 1235.67 65.304 1236.22 64.512C1236.8 63.72 1237.79 63.12 1239.21 62.712C1240.62 62.304 1242.59 62.1 1245.11 62.1H1245.65C1245.65 60.012 1245.36 58.536 1244.79 57.672C1244.21 56.784 1243.36 56.34 1242.23 56.34C1241.3 56.34 1240.53 56.568 1239.93 57.024C1239.33 57.48 1238.9 58.332 1238.63 59.58H1236.65C1236.65 58.764 1236.7 58.068 1236.8 57.492C1236.92 56.916 1237.17 56.412 1237.55 55.98C1238.3 55.14 1240.1 54.72 1242.95 54.72C1245.35 54.72 1247.18 55.356 1248.42 56.628C1249.7 57.876 1250.33 59.76 1250.33 62.28V72H1247.27L1246.01 70.38H1245.83C1245.62 70.716 1245.28 71.052 1244.82 71.388C1244.01 72.036 1242.9 72.36 1241.51 72.36ZM1242.59 70.56C1243.1 70.56 1243.53 70.464 1243.89 70.272C1244.25 70.056 1244.6 69.768 1244.93 69.408C1245.24 69.072 1245.48 68.676 1245.65 68.22V63.72H1245.11C1243.41 63.72 1242.17 64.032 1241.4 64.656C1240.64 65.256 1240.25 66.204 1240.25 67.5C1240.25 68.484 1240.46 69.24 1240.86 69.768C1241.27 70.296 1241.85 70.56 1242.59 70.56ZM1254.87 59.76C1254.87 58.536 1254.7 57.636 1254.37 57.06C1254.03 56.46 1253.36 56.16 1252.35 56.16H1252.17V55.08H1261.82C1264.05 55.08 1265.82 55.452 1267.11 56.196C1268.43 56.94 1269.09 58.008 1269.09 59.4C1269.09 60.456 1268.7 61.308 1267.9 61.956C1267.11 62.58 1265.98 62.988 1264.52 63.18C1266.13 63.396 1267.41 63.864 1268.37 64.584C1269.33 65.28 1269.81 66.192 1269.81 67.32C1269.81 70.44 1267.15 72 1261.82 72H1254.87V59.76ZM1260.81 62.28C1261.77 62.28 1262.58 62.028 1263.22 61.524C1263.9 60.996 1264.23 60.288 1264.23 59.4C1264.23 58.464 1263.92 57.756 1263.3 57.276C1262.7 56.772 1261.99 56.52 1261.17 56.52C1260.6 56.52 1260.06 56.604 1259.55 56.772V62.28H1260.81ZM1261.17 70.56C1262.3 70.56 1263.21 70.284 1263.91 69.732C1264.6 69.156 1264.95 68.352 1264.95 67.32C1264.95 66.192 1264.58 65.34 1263.84 64.764C1263.12 64.188 1262.11 63.9 1260.81 63.9H1259.55V70.308C1260.06 70.476 1260.6 70.56 1261.17 70.56ZM1273.15 72.54C1272.79 72.54 1272.39 72.504 1271.96 72.432C1271.53 72.36 1271.2 72.288 1270.99 72.216V71.172C1271.92 71.028 1272.71 70.62 1273.36 69.948C1274.01 69.252 1274.53 68.064 1274.91 66.384C1275.32 64.68 1275.52 62.352 1275.52 59.4C1275.52 58.344 1275.33 57.54 1274.95 56.988C1274.59 56.436 1273.88 56.16 1272.82 56.16V55.08H1289.02V72H1284.34V56.7H1279.27V59.4C1279.27 68.16 1277.23 72.54 1273.15 72.54ZM1294.08 72.54C1293.24 72.54 1292.46 72.42 1291.74 72.18V71.244C1292.84 71.1 1293.86 70.212 1294.8 68.58L1296.96 64.836C1295.68 64.644 1294.68 64.14 1293.93 63.324C1293.19 62.484 1292.82 61.476 1292.82 60.3C1292.82 58.5 1293.51 57.18 1294.9 56.34C1296.32 55.5 1298.26 55.08 1300.74 55.08H1310.1V56.16H1309.92C1308.91 56.16 1308.24 56.46 1307.9 57.06C1307.56 57.636 1307.4 58.536 1307.4 59.76V72H1302.72V65.016H1301.13L1298.97 69.3C1298.42 70.428 1297.77 71.256 1297.03 71.784C1296.31 72.288 1295.32 72.54 1294.08 72.54ZM1301.1 63.54C1301.53 63.54 1301.9 63.504 1302.21 63.432C1302.52 63.336 1302.69 63.288 1302.72 63.288V56.772C1302.69 56.772 1302.52 56.736 1302.21 56.664C1301.9 56.568 1301.53 56.52 1301.1 56.52C1300.09 56.52 1299.26 56.796 1298.61 57.348C1297.99 57.876 1297.68 58.74 1297.68 59.94C1297.68 61.14 1298 62.04 1298.65 62.64C1299.3 63.24 1300.11 63.54 1301.1 63.54ZM1319.83 72.36C1318.17 72.36 1316.72 71.976 1315.47 71.208C1314.22 70.44 1313.25 69.396 1312.55 68.076C1311.88 66.732 1311.55 65.22 1311.55 63.54C1311.55 61.668 1311.88 60.072 1312.55 58.752C1313.25 57.432 1314.2 56.436 1315.4 55.764C1316.6 55.068 1317.95 54.72 1319.47 54.72C1320.95 54.72 1322.3 55.02 1323.5 55.62C1324.7 56.22 1325.65 57.072 1326.34 58.176C1327.04 59.256 1327.39 60.504 1327.39 61.92C1327.39 62.376 1327.36 62.892 1327.31 63.468L1327.24 64.188H1316.41C1316.41 66.468 1316.75 68.136 1317.45 69.192C1318.15 70.224 1319.12 70.74 1320.37 70.74C1321.52 70.74 1322.48 70.488 1323.25 69.984C1324.04 69.456 1324.79 68.712 1325.51 67.752L1326.63 68.58C1325.93 69.66 1325.06 70.56 1324 71.28C1322.97 72 1321.58 72.36 1319.83 72.36ZM1322.53 62.568C1322.53 60.312 1322.26 58.716 1321.73 57.78C1321.21 56.82 1320.45 56.34 1319.47 56.34C1318.55 56.34 1317.81 56.832 1317.23 57.816C1316.68 58.776 1316.41 60.36 1316.41 62.568H1322.53ZM1352.44 72.9C1349.87 72.9 1348.01 72.336 1346.86 71.208C1345.7 70.056 1345.13 68.28 1345.13 65.88V59.616L1339.94 72H1338.76L1332.49 59.256V71.964H1330.69V55.08H1335.08L1340.41 65.916L1345.09 54.72H1349.81V65.88C1349.81 67.92 1350 69.408 1350.38 70.344C1350.77 71.28 1351.45 71.832 1352.44 72V72.9Z" fill="#4B4B4B"/>
<path d="M596.936 192.36C595.088 192.36 593.516 191.964 592.22 191.172C590.924 190.38 589.94 189.324 589.268 188.004C588.62 186.66 588.296 185.172 588.296 183.54C588.296 181.908 588.62 180.432 589.268 179.112C589.94 177.768 590.924 176.7 592.22 175.908C593.516 175.116 595.088 174.72 596.936 174.72C599.816 174.72 601.676 175.14 602.516 175.98C602.924 176.388 603.176 176.928 603.272 177.6C603.368 178.272 603.416 179.412 603.416 181.02H602.336C602.24 179.508 601.772 178.356 600.932 177.564C600.092 176.748 598.94 176.34 597.476 176.34C596.156 176.34 595.1 176.952 594.308 178.176C593.54 179.376 593.156 181.164 593.156 183.54C593.156 188.34 594.656 190.74 597.656 190.74C598.808 190.74 599.768 190.488 600.536 189.984C601.328 189.456 602.084 188.712 602.804 187.752L603.92 188.58C603.224 189.66 602.348 190.56 601.292 191.28C600.236 192 598.784 192.36 596.936 192.36ZM644.351 193.62C641.759 193.62 639.887 193.02 638.735 191.82C637.607 190.596 637.043 188.616 637.043 185.88V173.136L629.159 192H627.971L618.323 172.416V192H616.523V168.24H620.915L629.627 185.916L637.007 168.24H641.723V185.88C641.723 188.136 641.915 189.792 642.299 190.848C642.683 191.904 643.367 192.528 644.351 192.72V193.62ZM654.198 192.36C652.542 192.36 651.09 191.976 649.842 191.208C648.594 190.44 647.622 189.396 646.926 188.076C646.254 186.732 645.918 185.22 645.918 183.54C645.918 181.668 646.254 180.072 646.926 178.752C647.622 177.432 648.57 176.436 649.77 175.764C650.97 175.068 652.326 174.72 653.838 174.72C655.326 174.72 656.67 175.02 657.87 175.62C659.07 176.22 660.018 177.072 660.714 178.176C661.41 179.256 661.758 180.504 661.758 181.92C661.758 182.376 661.734 182.892 661.686 183.468L661.614 184.188H650.778C650.778 186.468 651.126 188.136 651.822 189.192C652.518 190.224 653.49 190.74 654.738 190.74C655.89 190.74 656.85 190.488 657.618 189.984C658.41 189.456 659.166 188.712 659.886 187.752L661.002 188.58C660.306 189.66 659.43 190.56 658.374 191.28C657.342 192 655.95 192.36 654.198 192.36ZM656.898 182.568C656.898 180.312 656.634 178.716 656.106 177.78C655.578 176.82 654.822 176.34 653.838 176.34C652.926 176.34 652.182 176.832 651.606 177.816C651.054 178.776 650.778 180.36 650.778 182.568H656.898ZM664.438 192.36C664.006 192.36 663.526 192.324 662.998 192.252C662.494 192.18 662.146 192.096 661.954 192V191.136C663.106 190.848 664.222 189.936 665.302 188.4L669.766 182.064L666.598 177.816C665.686 176.616 664.486 176.016 662.998 176.016V175.08H663.718C664.942 175.08 665.926 175.296 666.67 175.728C667.414 176.16 668.158 176.868 668.902 177.852L672.898 183.18V175.08H677.578V183.18L681.574 177.852C682.318 176.868 683.062 176.16 683.806 175.728C684.55 175.296 685.534 175.08 686.758 175.08H687.478V176.016C685.99 176.016 684.79 176.616 683.878 177.816L680.71 182.064L685.174 188.4C686.254 189.936 687.37 190.848 688.522 191.136V192C688.33 192.096 687.982 192.18 687.478 192.252C686.974 192.324 686.494 192.36 686.038 192.36C684.982 192.36 684.022 192.12 683.158 191.64C682.318 191.136 681.49 190.296 680.674 189.12L677.578 184.692V192H672.898V184.692L669.802 189.12C668.986 190.296 668.146 191.136 667.282 191.64C666.442 192.12 665.494 192.36 664.438 192.36ZM688.89 191.64C688.89 191.28 689.01 190.98 689.25 190.74C689.49 190.5 689.79 190.38 690.15 190.38H691.446C692.214 188.7 692.766 186.912 693.102 185.016C693.438 183.096 693.606 181.224 693.606 179.4C693.606 178.344 693.426 177.54 693.066 176.988C692.706 176.436 691.986 176.16 690.906 176.16V175.08H706.926V190.38H708.006C708.366 190.38 708.666 190.5 708.906 190.74C709.146 190.98 709.266 191.28 709.266 191.64V197.76H707.466C707.346 196.224 707.118 195.036 706.782 194.196C706.446 193.38 706.002 192.804 705.45 192.468C704.922 192.156 704.25 192 703.434 192H694.722C693.906 192 693.222 192.156 692.67 192.468C692.142 192.804 691.71 193.38 691.374 194.196C691.038 195.036 690.81 196.224 690.69 197.76H688.89V191.64ZM702.246 190.38V176.7H697.17C697.17 179.796 697.014 182.412 696.702 184.548C696.414 186.66 695.91 188.604 695.19 190.38H702.246ZM712.867 197.94C714.187 197.94 715.255 197.688 716.071 197.184C716.887 196.68 717.547 195.768 718.051 194.448L718.807 192.504L712.327 178.32C711.535 176.592 710.419 175.632 708.979 175.44V174.72H712.147C713.203 174.72 714.139 174.984 714.955 175.512C715.771 176.016 716.395 176.712 716.827 177.6L720.967 186.672L725.359 175.08H727.267L719.995 194.34C719.323 196.212 718.543 197.484 717.655 198.156C716.767 198.852 715.651 199.2 714.307 199.2H712.867V197.94ZM730.715 179.76C730.715 178.536 730.547 177.636 730.211 177.06C729.875 176.46 729.203 176.16 728.195 176.16H727.835V175.08H732.155C733.019 175.08 733.679 175.224 734.135 175.512C734.591 175.8 734.915 176.28 735.107 176.952C735.299 177.6 735.395 178.536 735.395 179.76V182.64H741.155V175.08H745.835V187.32C745.835 188.544 746.003 189.456 746.339 190.056C746.675 190.632 747.347 190.92 748.355 190.92H748.715V192H744.395C743.531 192 742.871 191.868 742.415 191.604C741.959 191.316 741.635 190.848 741.443 190.2C741.251 189.528 741.155 188.568 741.155 187.32V184.26H735.395V192H730.715V179.76ZM755.848 192.36C753.904 192.36 752.392 191.928 751.312 191.064C750.256 190.176 749.728 188.988 749.728 187.5C749.728 186.3 750.004 185.304 750.556 184.512C751.132 183.72 752.128 183.12 753.544 182.712C754.96 182.304 756.928 182.1 759.448 182.1H759.988C759.988 180.012 759.7 178.536 759.124 177.672C758.548 176.784 757.696 176.34 756.568 176.34C755.632 176.34 754.864 176.568 754.264 177.024C753.664 177.48 753.232 178.332 752.968 179.58H750.988C750.988 178.764 751.036 178.068 751.132 177.492C751.252 176.916 751.504 176.412 751.888 175.98C752.632 175.14 754.432 174.72 757.288 174.72C759.688 174.72 761.512 175.356 762.76 176.628C764.032 177.876 764.668 179.76 764.668 182.28V192H761.608L760.348 190.38H760.168C759.952 190.716 759.616 191.052 759.16 191.388C758.344 192.036 757.24 192.36 755.848 192.36ZM756.928 190.56C757.432 190.56 757.864 190.464 758.224 190.272C758.584 190.056 758.932 189.768 759.268 189.408C759.58 189.072 759.82 188.676 759.988 188.22V183.72H759.448C757.744 183.72 756.508 184.032 755.74 184.656C754.972 185.256 754.588 186.204 754.588 187.5C754.588 188.484 754.792 189.24 755.2 189.768C755.608 190.296 756.184 190.56 756.928 190.56ZM769.423 179.76C769.423 178.536 769.255 177.636 768.919 177.06C768.607 176.46 767.947 176.16 766.939 176.16H766.579V175.08H770.143C770.983 175.08 771.631 175.2 772.087 175.44C772.543 175.656 772.903 176.04 773.167 176.592C774.583 175.344 776.215 174.72 778.063 174.72C780.487 174.72 782.347 175.548 783.643 177.204C784.963 178.836 785.623 180.948 785.623 183.54C785.623 186.132 784.951 188.256 783.607 189.912C782.287 191.544 780.379 192.36 777.883 192.36C776.899 192.36 775.975 192.18 775.111 191.82C774.727 191.676 774.391 191.496 774.103 191.28V198.84H769.423V179.76ZM777.163 190.74C779.563 190.74 780.763 188.34 780.763 183.54C780.763 181.332 780.487 179.58 779.935 178.284C779.383 176.988 778.519 176.34 777.343 176.34C775.999 176.34 774.835 176.832 773.851 177.816L773.959 178.32C774.055 178.608 774.103 179.016 774.103 179.544V189.66C774.367 189.876 774.655 190.056 774.967 190.2C775.639 190.56 776.371 190.74 777.163 190.74ZM796.905 192.36C795.153 192.36 793.617 191.976 792.297 191.208C791.001 190.416 790.005 189.36 789.309 188.04C788.613 186.696 788.265 185.196 788.265 183.54C788.265 181.884 788.613 180.396 789.309 179.076C790.005 177.732 791.001 176.676 792.297 175.908C793.617 175.116 795.153 174.72 796.905 174.72C798.657 174.72 800.181 175.116 801.477 175.908C802.797 176.676 803.805 177.732 804.501 179.076C805.197 180.396 805.545 181.884 805.545 183.54C805.545 185.196 805.197 186.696 804.501 188.04C803.805 189.36 802.797 190.416 801.477 191.208C800.181 191.976 798.657 192.36 796.905 192.36ZM796.905 190.74C798.129 190.74 799.065 190.08 799.713 188.76C800.361 187.44 800.685 185.7 800.685 183.54C800.685 181.38 800.361 179.64 799.713 178.32C799.065 177 798.129 176.34 796.905 176.34C795.681 176.34 794.745 177 794.097 178.32C793.449 179.64 793.125 181.38 793.125 183.54C793.125 185.7 793.449 187.44 794.097 188.76C794.745 190.08 795.681 190.74 796.905 190.74ZM806.347 191.64C806.347 191.28 806.467 190.98 806.707 190.74C806.947 190.5 807.247 190.38 807.607 190.38H808.903C809.671 188.7 810.223 186.912 810.559 185.016C810.895 183.096 811.063 181.224 811.063 179.4C811.063 178.344 810.883 177.54 810.523 176.988C810.163 176.436 809.443 176.16 808.363 176.16V175.08H824.383V190.38H825.463C825.823 190.38 826.123 190.5 826.363 190.74C826.603 190.98 826.723 191.28 826.723 191.64V197.76H824.923C824.803 196.224 824.575 195.036 824.239 194.196C823.903 193.38 823.459 192.804 822.907 192.468C822.379 192.156 821.707 192 820.891 192H812.179C811.363 192 810.679 192.156 810.127 192.468C809.599 192.804 809.167 193.38 808.831 194.196C808.495 195.036 808.267 196.224 808.147 197.76H806.347V191.64ZM819.703 190.38V176.7H814.627C814.627 179.796 814.471 182.412 814.159 184.548C813.871 186.66 813.367 188.604 812.647 190.38H819.703ZM829.856 179.76C829.856 178.536 829.688 177.636 829.352 177.06C829.016 176.46 828.344 176.16 827.336 176.16H826.976V175.08H831.296C832.16 175.08 832.82 175.224 833.276 175.512C833.732 175.8 834.056 176.28 834.248 176.952C834.44 177.6 834.536 178.536 834.536 179.76V182.64H840.296V175.08H844.976V187.32C844.976 188.544 845.144 189.456 845.48 190.056C845.816 190.632 846.488 190.92 847.496 190.92H847.856V192H843.536C842.672 192 842.012 191.868 841.556 191.604C841.1 191.316 840.776 190.848 840.584 190.2C840.392 189.528 840.296 188.568 840.296 187.32V184.26H834.536V192H829.856V179.76ZM850.668 179.76C850.668 178.536 850.5 177.636 850.164 177.06C849.828 176.46 849.156 176.16 848.148 176.16H847.788V175.08H852.108C852.972 175.08 853.632 175.224 854.088 175.512C854.544 175.8 854.868 176.28 855.06 176.952C855.252 177.6 855.348 178.536 855.348 179.76V181.92H857.688C859.968 181.92 861.768 182.364 863.088 183.252C864.408 184.116 865.068 185.352 865.068 186.96C865.068 188.568 864.408 189.816 863.088 190.704C861.768 191.568 859.968 192 857.688 192H850.668V179.76ZM870.108 192C869.244 192 868.584 191.868 868.128 191.604C867.672 191.316 867.348 190.848 867.156 190.2C866.964 189.528 866.868 188.568 866.868 187.32V175.08H871.548V187.32C871.548 188.544 871.716 189.456 872.052 190.056C872.388 190.632 873.06 190.92 874.068 190.92H874.428V192H870.108ZM856.968 190.56C857.88 190.56 858.648 190.284 859.272 189.732C859.896 189.156 860.208 188.232 860.208 186.96C860.208 185.688 859.896 184.776 859.272 184.224C858.648 183.648 857.88 183.36 856.968 183.36C856.392 183.36 855.852 183.444 855.348 183.612V190.308C855.852 190.476 856.392 190.56 856.968 190.56ZM898.306 192.9C895.738 192.9 893.878 192.336 892.726 191.208C891.574 190.056 890.998 188.28 890.998 185.88V179.616L885.814 192H884.626L878.362 179.256V191.964H876.562V175.08H880.954L886.282 185.916L890.962 174.72H895.678V185.88C895.678 187.92 895.87 189.408 896.254 190.344C896.638 191.28 897.322 191.832 898.306 192V192.9ZM909.899 192.36C909.467 192.36 908.987 192.324 908.459 192.252C907.955 192.18 907.607 192.096 907.415 192V191.136C908.567 190.848 909.683 189.936 910.763 188.4L915.227 182.064L912.059 177.816C911.147 176.616 909.947 176.016 908.459 176.016V175.08H909.179C910.403 175.08 911.387 175.296 912.131 175.728C912.875 176.16 913.619 176.868 914.363 177.852L918.359 183.18V175.08H923.039V183.18L927.035 177.852C927.779 176.868 928.523 176.16 929.267 175.728C930.011 175.296 930.995 175.08 932.219 175.08H932.939V176.016C931.451 176.016 930.251 176.616 929.339 177.816L926.171 182.064L930.635 188.4C931.715 189.936 932.831 190.848 933.983 191.136V192C933.791 192.096 933.443 192.18 932.939 192.252C932.435 192.324 931.955 192.36 931.499 192.36C930.443 192.36 929.483 192.12 928.619 191.64C927.779 191.136 926.951 190.296 926.135 189.12L923.039 184.692V192H918.359V184.692L915.263 189.12C914.447 190.296 913.607 191.136 912.743 191.64C911.903 192.12 910.955 192.36 909.899 192.36ZM942.514 192.36C940.858 192.36 939.406 191.976 938.158 191.208C936.91 190.44 935.938 189.396 935.242 188.076C934.57 186.732 934.234 185.22 934.234 183.54C934.234 181.668 934.57 180.072 935.242 178.752C935.938 177.432 936.886 176.436 938.086 175.764C939.286 175.068 940.642 174.72 942.154 174.72C943.642 174.72 944.986 175.02 946.186 175.62C947.386 176.22 948.334 177.072 949.03 178.176C949.726 179.256 950.074 180.504 950.074 181.92C950.074 182.376 950.05 182.892 950.002 183.468L949.93 184.188H939.094C939.094 186.468 939.442 188.136 940.138 189.192C940.834 190.224 941.806 190.74 943.054 190.74C944.206 190.74 945.166 190.488 945.934 189.984C946.726 189.456 947.482 188.712 948.202 187.752L949.318 188.58C948.622 189.66 947.746 190.56 946.69 191.28C945.658 192 944.266 192.36 942.514 192.36ZM945.214 182.568C945.214 180.312 944.95 178.716 944.422 177.78C943.894 176.82 943.138 176.34 942.154 176.34C941.242 176.34 940.498 176.832 939.922 177.816C939.37 178.776 939.094 180.36 939.094 182.568H945.214ZM954.063 179.76C954.063 178.536 953.895 177.636 953.559 177.06C953.223 176.46 952.551 176.16 951.543 176.16H951.183V175.08H955.503C956.367 175.08 957.027 175.224 957.483 175.512C957.939 175.8 958.263 176.28 958.455 176.952C958.647 177.6 958.743 178.536 958.743 179.76V182.64H964.503V175.08H969.183V187.32C969.183 188.544 969.351 189.456 969.687 190.056C970.023 190.632 970.695 190.92 971.703 190.92H972.063V192H967.743C966.879 192 966.219 191.868 965.763 191.604C965.307 191.316 964.983 190.848 964.791 190.2C964.599 189.528 964.503 188.568 964.503 187.32V184.26H958.743V192H954.063V179.76ZM981.967 192.36C980.119 192.36 978.547 191.964 977.251 191.172C975.955 190.38 974.971 189.324 974.299 188.004C973.651 186.66 973.327 185.172 973.327 183.54C973.327 181.908 973.651 180.432 974.299 179.112C974.971 177.768 975.955 176.7 977.251 175.908C978.547 175.116 980.119 174.72 981.967 174.72C984.847 174.72 986.707 175.14 987.547 175.98C987.955 176.388 988.207 176.928 988.303 177.6C988.399 178.272 988.447 179.412 988.447 181.02H987.367C987.271 179.508 986.803 178.356 985.963 177.564C985.123 176.748 983.971 176.34 982.507 176.34C981.187 176.34 980.131 176.952 979.339 178.176C978.571 179.376 978.187 181.164 978.187 183.54C978.187 188.34 979.687 190.74 982.687 190.74C983.839 190.74 984.799 190.488 985.567 189.984C986.359 189.456 987.115 188.712 987.835 187.752L988.951 188.58C988.255 189.66 987.379 190.56 986.323 191.28C985.267 192 983.815 192.36 981.967 192.36ZM1006.23 192.36C1005.18 192.36 1004.21 192.144 1003.32 191.712C1002.45 191.256 1001.64 190.512 1000.87 189.48L997.415 184.944V192H992.735V179.76C992.735 178.536 992.567 177.636 992.231 177.06C991.895 176.46 991.223 176.16 990.215 176.16H989.855V175.08H994.175C995.039 175.08 995.699 175.224 996.155 175.512C996.611 175.8 996.935 176.28 997.127 176.952C997.319 177.6 997.415 178.536 997.415 179.76V183.18L1001.77 177.852C1002.59 176.868 1003.35 176.16 1004.07 175.728C1004.79 175.296 1005.75 175.08 1006.95 175.08H1007.67V176.016C1006.95 176.016 1006.31 176.16 1005.73 176.448C1005.15 176.736 1004.6 177.192 1004.07 177.816L1000.58 182.064L1005.37 188.4C1006.52 189.96 1007.64 190.872 1008.72 191.136V192C1008.53 192.096 1008.18 192.18 1007.67 192.252C1007.17 192.324 1006.69 192.36 1006.23 192.36ZM1011.61 179.76C1011.61 178.536 1011.45 177.636 1011.11 177.06C1010.77 176.46 1010.1 176.16 1009.09 176.16H1008.73V175.08H1013.05C1013.92 175.08 1014.58 175.224 1015.03 175.512C1015.49 175.8 1015.81 176.28 1016.01 176.952C1016.2 177.6 1016.29 178.536 1016.29 179.76V187.5L1022.77 175.08H1027.09V192H1022.41V179.58L1015.93 192H1011.61V179.76ZM1053.17 192.9C1050.6 192.9 1048.74 192.336 1047.59 191.208C1046.44 190.056 1045.86 188.28 1045.86 185.88V179.616L1040.68 192H1039.49L1033.23 179.256V191.964H1031.43V175.08H1035.82L1041.15 185.916L1045.83 174.72H1050.54V185.88C1050.54 187.92 1050.73 189.408 1051.12 190.344C1051.5 191.28 1052.19 191.832 1053.17 192V192.9ZM1062.57 191.64C1062.57 191.28 1062.69 190.98 1062.93 190.74C1063.17 190.5 1063.47 190.38 1063.83 190.38H1065.12C1065.89 188.7 1066.44 186.912 1066.78 185.016C1067.11 183.096 1067.28 181.224 1067.28 179.4C1067.28 178.344 1067.1 177.54 1066.74 176.988C1066.38 176.436 1065.66 176.16 1064.58 176.16V175.08H1080.6V190.38H1081.68C1082.04 190.38 1082.34 190.5 1082.58 190.74C1082.82 190.98 1082.94 191.28 1082.94 191.64V197.76H1081.14C1081.02 196.224 1080.79 195.036 1080.46 194.196C1080.12 193.38 1079.68 192.804 1079.13 192.468C1078.6 192.156 1077.93 192 1077.11 192H1068.4C1067.58 192 1066.9 192.156 1066.35 192.468C1065.82 192.804 1065.39 193.38 1065.05 194.196C1064.71 195.036 1064.49 196.224 1064.37 197.76H1062.57V191.64ZM1075.92 190.38V176.7H1070.85C1070.85 179.796 1070.69 182.412 1070.38 184.548C1070.09 186.66 1069.59 188.604 1068.87 190.38H1075.92ZM1086.07 179.76C1086.07 178.536 1085.91 177.636 1085.57 177.06C1085.23 176.46 1084.56 176.16 1083.55 176.16H1083.19V175.08H1087.51C1088.38 175.08 1089.04 175.224 1089.49 175.512C1089.95 175.8 1090.27 176.28 1090.47 176.952C1090.66 177.6 1090.75 178.536 1090.75 179.76V182.64H1096.51V175.08H1101.19V187.32C1101.19 188.544 1101.36 189.456 1101.7 190.056C1102.03 190.632 1102.71 190.92 1103.71 190.92H1104.07V192H1099.75C1098.89 192 1098.23 191.868 1097.77 191.604C1097.32 191.316 1096.99 190.848 1096.8 190.2C1096.61 189.528 1096.51 188.568 1096.51 187.32V184.26H1090.75V192H1086.07V179.76ZM1113.65 192.36C1112 192.36 1110.55 191.976 1109.3 191.208C1108.05 190.44 1107.08 189.396 1106.38 188.076C1105.71 186.732 1105.37 185.22 1105.37 183.54C1105.37 181.668 1105.71 180.072 1106.38 178.752C1107.08 177.432 1108.03 176.436 1109.23 175.764C1110.43 175.068 1111.78 174.72 1113.29 174.72C1114.78 174.72 1116.13 175.02 1117.33 175.62C1118.53 176.22 1119.47 177.072 1120.17 178.176C1120.87 179.256 1121.21 180.504 1121.21 181.92C1121.21 182.376 1121.19 182.892 1121.14 183.468L1121.07 184.188H1110.23C1110.23 186.468 1110.58 188.136 1111.28 189.192C1111.97 190.224 1112.95 190.74 1114.19 190.74C1115.35 190.74 1116.31 190.488 1117.07 189.984C1117.87 189.456 1118.62 188.712 1119.34 187.752L1120.46 188.58C1119.76 189.66 1118.89 190.56 1117.83 191.28C1116.8 192 1115.41 192.36 1113.65 192.36ZM1116.35 182.568C1116.35 180.312 1116.09 178.716 1115.56 177.78C1115.03 176.82 1114.28 176.34 1113.29 176.34C1112.38 176.34 1111.64 176.832 1111.06 177.816C1110.51 178.776 1110.23 180.36 1110.23 182.568H1116.35ZM1146.26 192.9C1143.7 192.9 1141.84 192.336 1140.68 191.208C1139.53 190.056 1138.96 188.28 1138.96 185.88V179.616L1133.77 192H1132.58L1126.32 179.256V191.964H1124.52V175.08H1128.91L1134.24 185.916L1138.92 174.72H1143.64V185.88C1143.64 187.92 1143.83 189.408 1144.21 190.344C1144.6 191.28 1145.28 191.832 1146.26 192V192.9ZM1157.64 183.828V181.488H1185.14V183.828H1157.64ZM1206.84 192.72C1204.2 192.72 1202.04 192.216 1200.36 191.208C1198.68 190.176 1197.84 188.616 1197.84 186.528C1197.84 184.968 1198.38 183.684 1199.46 182.676C1200.54 181.644 1202 180.732 1203.85 179.94C1202.17 179.004 1200.9 178.092 1200.03 177.204C1199.17 176.292 1198.74 175.128 1198.74 173.712C1198.74 171.504 1199.47 169.92 1200.93 168.96C1202.42 168 1204.39 167.52 1206.84 167.52C1209.29 167.52 1211.24 167.976 1212.71 168.888C1214.19 169.8 1214.94 171.288 1214.94 173.352C1214.94 174.648 1214.49 175.776 1213.61 176.736C1212.74 177.696 1211.57 178.488 1210.08 179.112C1211.9 180.096 1213.32 181.116 1214.33 182.172C1215.33 183.228 1215.84 184.56 1215.84 186.168C1215.84 188.424 1215.01 190.08 1213.35 191.136C1211.72 192.192 1209.55 192.72 1206.84 192.72ZM1208.21 178.176C1208.85 177.672 1209.32 177.06 1209.61 176.34C1209.92 175.62 1210.08 174.624 1210.08 173.352C1210.08 171.864 1209.74 170.796 1209.07 170.148C1208.42 169.476 1207.68 169.14 1206.84 169.14C1206 169.14 1205.24 169.452 1204.57 170.076C1203.92 170.676 1203.6 171.648 1203.6 172.992C1203.6 174.048 1204.02 175.02 1204.86 175.908C1205.72 176.796 1206.84 177.552 1208.21 178.176ZM1206.84 191.1C1208.09 191.1 1209.08 190.74 1209.83 190.02C1210.59 189.276 1210.98 188.232 1210.98 186.888C1210.98 185.544 1210.52 184.416 1209.61 183.504C1208.72 182.592 1207.44 181.692 1205.76 180.804C1204.75 181.332 1203.98 182.04 1203.45 182.928C1202.95 183.792 1202.7 184.992 1202.7 186.528C1202.7 188.064 1203.07 189.216 1203.81 189.984C1204.56 190.728 1205.57 191.1 1206.84 191.1ZM1250.15 192.9C1247.58 192.9 1245.72 192.336 1244.57 191.208C1243.42 190.056 1242.84 188.28 1242.84 185.88V179.616L1237.66 192H1236.47L1230.21 179.256V191.964H1228.41V175.08H1232.8L1238.13 185.916L1242.81 174.72H1247.52V185.88C1247.52 187.92 1247.71 189.408 1248.1 190.344C1248.48 191.28 1249.17 191.832 1250.15 192V192.9ZM1257.39 192.36C1255.44 192.36 1253.93 191.928 1252.85 191.064C1251.79 190.176 1251.27 188.988 1251.27 187.5C1251.27 186.3 1251.54 185.304 1252.09 184.512C1252.67 183.72 1253.67 183.12 1255.08 182.712C1256.5 182.304 1258.47 182.1 1260.99 182.1H1261.53C1261.53 180.012 1261.24 178.536 1260.66 177.672C1260.09 176.784 1259.23 176.34 1258.11 176.34C1257.17 176.34 1256.4 176.568 1255.8 177.024C1255.2 177.48 1254.77 178.332 1254.51 179.58H1252.53C1252.53 178.764 1252.57 178.068 1252.67 177.492C1252.79 176.916 1253.04 176.412 1253.43 175.98C1254.17 175.14 1255.97 174.72 1258.83 174.72C1261.23 174.72 1263.05 175.356 1264.3 176.628C1265.57 177.876 1266.21 179.76 1266.21 182.28V192H1263.15L1261.89 190.38H1261.71C1261.49 190.716 1261.15 191.052 1260.7 191.388C1259.88 192.036 1258.78 192.36 1257.39 192.36ZM1258.47 190.56C1258.97 190.56 1259.4 190.464 1259.76 190.272C1260.12 190.056 1260.47 189.768 1260.81 189.408C1261.12 189.072 1261.36 188.676 1261.53 188.22V183.72H1260.99C1259.28 183.72 1258.05 184.032 1257.28 184.656C1256.51 185.256 1256.13 186.204 1256.13 187.5C1256.13 188.484 1256.33 189.24 1256.74 189.768C1257.15 190.296 1257.72 190.56 1258.47 190.56ZM1270.96 179.76C1270.96 178.536 1270.79 177.636 1270.46 177.06C1270.15 176.46 1269.49 176.16 1268.48 176.16H1268.12V175.08H1271.68C1272.52 175.08 1273.17 175.2 1273.63 175.44C1274.08 175.656 1274.44 176.04 1274.71 176.592C1276.12 175.344 1277.75 174.72 1279.6 174.72C1282.03 174.72 1283.89 175.548 1285.18 177.204C1286.5 178.836 1287.16 180.948 1287.16 183.54C1287.16 186.132 1286.49 188.256 1285.15 189.912C1283.83 191.544 1281.92 192.36 1279.42 192.36C1278.44 192.36 1277.51 192.18 1276.65 191.82C1276.27 191.676 1275.93 191.496 1275.64 191.28V198.84H1270.96V179.76ZM1278.7 190.74C1281.1 190.74 1282.3 188.34 1282.3 183.54C1282.3 181.332 1282.03 179.58 1281.47 178.284C1280.92 176.988 1280.06 176.34 1278.88 176.34C1277.54 176.34 1276.37 176.832 1275.39 177.816L1275.5 178.32C1275.59 178.608 1275.64 179.016 1275.64 179.544V189.66C1275.91 189.876 1276.19 190.056 1276.51 190.2C1277.18 190.56 1277.91 190.74 1278.7 190.74ZM1294.88 176.7H1293.8C1292.67 176.7 1291.82 177 1291.24 177.6C1290.67 178.2 1290.38 179.16 1290.38 180.48H1289.3V177.96C1289.3 176.04 1290.2 175.08 1292 175.08H1305V176.7H1299.56V192H1294.88V176.7ZM1312.48 192.36C1310.53 192.36 1309.02 191.928 1307.94 191.064C1306.88 190.176 1306.36 188.988 1306.36 187.5C1306.36 186.3 1306.63 185.304 1307.18 184.512C1307.76 183.72 1308.76 183.12 1310.17 182.712C1311.59 182.304 1313.56 182.1 1316.08 182.1H1316.62C1316.62 180.012 1316.33 178.536 1315.75 177.672C1315.18 176.784 1314.32 176.34 1313.2 176.34C1312.26 176.34 1311.49 176.568 1310.89 177.024C1310.29 177.48 1309.86 178.332 1309.6 179.58H1307.62C1307.62 178.764 1307.66 178.068 1307.76 177.492C1307.88 176.916 1308.13 176.412 1308.52 175.98C1309.26 175.14 1311.06 174.72 1313.92 174.72C1316.32 174.72 1318.14 175.356 1319.39 176.628C1320.66 177.876 1321.3 179.76 1321.3 182.28V192H1318.24L1316.98 190.38H1316.8C1316.58 190.716 1316.24 191.052 1315.79 191.388C1314.97 192.036 1313.87 192.36 1312.48 192.36ZM1313.56 190.56C1314.06 190.56 1314.49 190.464 1314.85 190.272C1315.21 190.056 1315.56 189.768 1315.9 189.408C1316.21 189.072 1316.45 188.676 1316.62 188.22V183.72H1316.08C1314.37 183.72 1313.14 184.032 1312.37 184.656C1311.6 185.256 1311.22 186.204 1311.22 187.5C1311.22 188.484 1311.42 189.24 1311.83 189.768C1312.24 190.296 1312.81 190.56 1313.56 190.56ZM1325.87 186.42L1325.19 168.24H1329.98L1329.26 186.42H1325.87ZM1327.56 192.504C1326.87 192.504 1326.33 192.312 1325.94 191.928C1325.56 191.52 1325.37 190.98 1325.37 190.308C1325.37 189.636 1325.56 189.108 1325.94 188.724C1326.33 188.316 1326.87 188.112 1327.56 188.112C1328.26 188.112 1328.8 188.316 1329.18 188.724C1329.57 189.108 1329.76 189.636 1329.76 190.308C1329.76 190.98 1329.57 191.52 1329.18 191.928C1328.8 192.312 1328.26 192.504 1327.56 192.504Z" fill="#4B4B4B"/>
<path d="M558.08 104.08C558.08 101.904 557.781 100.304 557.184 99.28C556.587 98.2133 555.392 97.68 553.6 97.68H552.96V95.76H591.36V138H583.04V98.64H566.4V138H558.08V104.08ZM613.477 138.64C610.362 138.64 607.631 137.957 605.285 136.592C602.981 135.184 601.21 133.307 599.973 130.96C598.735 128.571 598.117 125.904 598.117 122.96C598.117 120.016 598.735 117.371 599.973 115.024C601.21 112.635 602.981 110.757 605.285 109.392C607.631 107.984 610.362 107.28 613.477 107.28C616.591 107.28 619.301 107.984 621.605 109.392C623.951 110.757 625.743 112.635 626.981 115.024C628.218 117.371 628.837 120.016 628.837 122.96C628.837 125.904 628.218 128.571 626.981 130.96C625.743 133.307 623.951 135.184 621.605 136.592C619.301 137.957 616.591 138.64 613.477 138.64ZM613.477 135.76C615.653 135.76 617.317 134.587 618.469 132.24C619.621 129.893 620.197 126.8 620.197 122.96C620.197 119.12 619.621 116.027 618.469 113.68C617.317 111.333 615.653 110.16 613.477 110.16C611.301 110.16 609.637 111.333 608.485 113.68C607.333 116.027 606.757 119.12 606.757 122.96C606.757 126.8 607.333 129.893 608.485 132.24C609.637 134.587 611.301 135.76 613.477 135.76ZM634.161 138.96C633.522 138.96 632.818 138.896 632.049 138.768C631.282 138.64 630.706 138.512 630.322 138.384V136.528C631.986 136.272 633.394 135.547 634.546 134.352C635.698 133.115 636.615 131.003 637.298 128.016C638.023 124.987 638.385 120.848 638.385 115.6C638.385 113.723 638.044 112.293 637.362 111.312C636.722 110.331 635.463 109.84 633.586 109.84V107.92H662.386V138H654.066V110.8H645.042V115.6C645.042 131.173 641.415 138.96 634.161 138.96ZM671.37 138.96C669.877 138.96 668.49 138.747 667.21 138.32V136.656C669.173 136.4 670.986 134.821 672.65 131.92L676.49 125.264C674.229 124.923 672.437 124.027 671.114 122.576C669.791 121.083 669.13 119.291 669.13 117.2C669.13 114 670.367 111.653 672.842 110.16C675.359 108.667 678.815 107.92 683.21 107.92H699.85V109.84H699.53C697.738 109.84 696.543 110.373 695.946 111.44C695.349 112.464 695.05 114.064 695.05 116.24V138H686.73V125.584H683.914L680.074 133.2C679.093 135.205 677.941 136.677 676.618 137.616C675.338 138.512 673.589 138.96 671.37 138.96ZM683.85 122.96C684.618 122.96 685.279 122.896 685.834 122.768C686.389 122.597 686.687 122.512 686.73 122.512V110.928C686.687 110.928 686.389 110.864 685.834 110.736C685.279 110.565 684.618 110.48 683.85 110.48C682.058 110.48 680.586 110.971 679.434 111.952C678.325 112.891 677.77 114.427 677.77 116.56C677.77 118.693 678.346 120.293 679.498 121.36C680.65 122.427 682.101 122.96 683.85 122.96ZM729.119 138.64C727.241 138.64 725.513 138.256 723.935 137.488C722.399 136.677 720.948 135.355 719.583 133.52L713.439 125.456V138H705.119V116.24C705.119 114.064 704.82 112.464 704.223 111.44C703.625 110.373 702.431 109.84 700.639 109.84H699.998V107.92H707.679C709.215 107.92 710.388 108.176 711.199 108.688C712.009 109.2 712.585 110.053 712.927 111.248C713.268 112.4 713.439 114.064 713.439 116.24V122.32L721.183 112.848C722.633 111.099 723.999 109.84 725.279 109.072C726.559 108.304 728.265 107.92 730.399 107.92H731.679V109.584C730.399 109.584 729.247 109.84 728.223 110.352C727.199 110.864 726.217 111.675 725.279 112.784L719.071 120.336L727.583 131.6C729.631 134.373 731.615 135.995 733.535 136.464V138C733.193 138.171 732.575 138.32 731.679 138.448C730.783 138.576 729.929 138.64 729.119 138.64ZM749.164 138.64C746.049 138.64 743.319 137.957 740.972 136.592C738.668 135.184 736.897 133.307 735.66 130.96C734.423 128.571 733.804 125.904 733.804 122.96C733.804 120.016 734.423 117.371 735.66 115.024C736.897 112.635 738.668 110.757 740.972 109.392C743.319 107.984 746.049 107.28 749.164 107.28C752.279 107.28 754.988 107.984 757.292 109.392C759.639 110.757 761.431 112.635 762.668 115.024C763.905 117.371 764.524 120.016 764.524 122.96C764.524 125.904 763.905 128.571 762.668 130.96C761.431 133.307 759.639 135.184 757.292 136.592C754.988 137.957 752.279 138.64 749.164 138.64ZM749.164 135.76C751.34 135.76 753.004 134.587 754.156 132.24C755.308 129.893 755.884 126.8 755.884 122.96C755.884 119.12 755.308 116.027 754.156 113.68C753.004 111.333 751.34 110.16 749.164 110.16C746.988 110.16 745.324 111.333 744.172 113.68C743.02 116.027 742.444 119.12 742.444 122.96C742.444 126.8 743.02 129.893 744.172 132.24C745.324 134.587 746.988 135.76 749.164 135.76ZM771.549 116.24C771.549 114.064 771.25 112.464 770.653 111.44C770.055 110.373 768.861 109.84 767.069 109.84H766.748V107.92H783.901C787.869 107.92 791.005 108.581 793.309 109.904C795.655 111.227 796.829 113.125 796.829 115.6C796.829 117.477 796.125 118.992 794.717 120.144C793.309 121.253 791.303 121.979 788.701 122.32C791.559 122.704 793.842 123.536 795.549 124.816C797.255 126.053 798.109 127.675 798.109 129.68C798.109 135.227 793.373 138 783.901 138H771.549V116.24ZM782.109 120.72C783.815 120.72 785.245 120.272 786.397 119.376C787.591 118.437 788.189 117.179 788.189 115.6C788.189 113.936 787.634 112.677 786.525 111.824C785.458 110.928 784.199 110.48 782.749 110.48C781.725 110.48 780.765 110.629 779.869 110.928V120.72H782.109ZM782.749 135.44C784.754 135.44 786.375 134.949 787.613 133.968C788.85 132.944 789.469 131.515 789.469 129.68C789.469 127.675 788.807 126.16 787.485 125.136C786.205 124.112 784.413 123.6 782.109 123.6H779.869V134.992C780.765 135.291 781.725 135.44 782.749 135.44ZM805.951 148.56C808.297 148.56 810.196 148.112 811.647 147.216C813.097 146.32 814.271 144.699 815.167 142.352L816.51 138.896L804.991 113.68C803.583 110.608 801.599 108.901 799.038 108.56V107.28H804.671C806.548 107.28 808.212 107.749 809.663 108.688C811.113 109.584 812.223 110.821 812.991 112.4L820.351 128.528L828.159 107.92H831.551L818.623 142.16C817.428 145.488 816.041 147.749 814.463 148.944C812.884 150.181 810.9 150.8 808.51 150.8H805.951V148.56ZM854.705 104.08C854.705 101.904 854.406 100.304 853.809 99.28C853.212 98.2133 852.017 97.68 850.225 97.68H849.585V95.76H887.985V138H879.665V98.64H863.025V138H854.705V104.08ZM910.102 138.64C906.987 138.64 904.256 137.957 901.91 136.592C899.606 135.184 897.835 133.307 896.598 130.96C895.36 128.571 894.742 125.904 894.742 122.96C894.742 120.016 895.36 117.371 896.598 115.024C897.835 112.635 899.606 110.757 901.91 109.392C904.256 107.984 906.987 107.28 910.102 107.28C913.216 107.28 915.926 107.984 918.23 109.392C920.576 110.757 922.368 112.635 923.606 115.024C924.843 117.371 925.462 120.016 925.462 122.96C925.462 125.904 924.843 128.571 923.606 130.96C922.368 133.307 920.576 135.184 918.23 136.592C915.926 137.957 913.216 138.64 910.102 138.64ZM910.102 135.76C912.278 135.76 913.942 134.587 915.094 132.24C916.246 129.893 916.822 126.8 916.822 122.96C916.822 119.12 916.246 116.027 915.094 113.68C913.942 111.333 912.278 110.16 910.102 110.16C907.926 110.16 906.262 111.333 905.11 113.68C903.958 116.027 903.382 119.12 903.382 122.96C903.382 126.8 903.958 129.893 905.11 132.24C906.262 134.587 907.926 135.76 910.102 135.76ZM930.786 138.96C930.147 138.96 929.443 138.896 928.674 138.768C927.907 138.64 927.331 138.512 926.947 138.384V136.528C928.611 136.272 930.019 135.547 931.171 134.352C932.323 133.115 933.24 131.003 933.923 128.016C934.648 124.987 935.01 120.848 935.01 115.6C935.01 113.723 934.669 112.293 933.987 111.312C933.347 110.331 932.088 109.84 930.211 109.84V107.92H959.011V138H950.691V110.8H941.667V115.6C941.667 131.173 938.04 138.96 930.786 138.96ZM967.931 116.24C967.931 114.064 967.632 112.464 967.035 111.44C966.438 110.373 965.243 109.84 963.451 109.84H962.811V107.92H970.491C972.027 107.92 973.2 108.176 974.011 108.688C974.822 109.2 975.398 110.053 975.739 111.248C976.08 112.4 976.251 114.064 976.251 116.24V130L987.771 107.92H995.451V138H987.131V115.92L975.611 138H967.931V116.24ZM1004.37 116.24C1004.37 114.064 1004.07 112.464 1003.47 111.44C1002.88 110.373 1001.68 109.84 999.889 109.84H999.248V107.92H1006.93C1008.46 107.92 1009.64 108.176 1010.45 108.688C1011.26 109.2 1011.84 110.053 1012.18 111.248C1012.52 112.4 1012.69 114.064 1012.69 116.24V121.36H1022.93V107.92H1031.25V129.68C1031.25 131.856 1031.55 133.477 1032.14 134.544C1032.74 135.568 1033.94 136.08 1035.73 136.08H1036.37V138H1028.69C1027.15 138 1025.98 137.765 1025.17 137.296C1024.36 136.784 1023.78 135.952 1023.44 134.8C1023.1 133.605 1022.93 131.899 1022.93 129.68V124.24H1012.69V138H1004.37V116.24ZM1042.2 148.56C1044.55 148.56 1046.45 148.112 1047.9 147.216C1049.35 146.32 1050.52 144.699 1051.42 142.352L1052.76 138.896L1041.24 113.68C1039.83 110.608 1037.85 108.901 1035.29 108.56V107.28H1040.92C1042.8 107.28 1044.46 107.749 1045.91 108.688C1047.36 109.584 1048.47 110.821 1049.24 112.4L1056.6 128.528L1064.41 107.92H1067.8L1054.87 142.16C1053.68 145.488 1052.29 147.749 1050.71 148.944C1049.13 150.181 1047.15 150.8 1044.76 150.8H1042.2V148.56ZM1090.96 104.08C1090.96 101.904 1090.66 100.304 1090.06 99.28C1089.46 98.2133 1088.27 97.68 1086.48 97.68H1085.84V95.76H1124.24V138H1115.92V98.64H1099.28V138H1090.96V104.08ZM1140.92 138.64C1137.47 138.64 1134.78 137.872 1132.86 136.336C1130.98 134.757 1130.04 132.645 1130.04 130C1130.04 127.867 1130.53 126.096 1131.52 124.688C1132.54 123.28 1134.31 122.213 1136.83 121.488C1139.34 120.763 1142.84 120.4 1147.32 120.4H1148.28C1148.28 116.688 1147.77 114.064 1146.75 112.528C1145.72 110.949 1144.21 110.16 1142.2 110.16C1140.54 110.16 1139.17 110.565 1138.11 111.376C1137.04 112.187 1136.27 113.701 1135.8 115.92H1132.28C1132.28 114.469 1132.37 113.232 1132.54 112.208C1132.75 111.184 1133.2 110.288 1133.88 109.52C1135.21 108.027 1138.41 107.28 1143.48 107.28C1147.75 107.28 1150.99 108.411 1153.21 110.672C1155.47 112.891 1156.6 116.24 1156.6 120.72V138H1151.16L1148.92 135.12H1148.6C1148.22 135.717 1147.62 136.315 1146.81 136.912C1145.36 138.064 1143.4 138.64 1140.92 138.64ZM1142.84 135.44C1143.74 135.44 1144.51 135.269 1145.15 134.928C1145.79 134.544 1146.41 134.032 1147 133.392C1147.56 132.795 1147.98 132.091 1148.28 131.28V123.28H1147.32C1144.29 123.28 1142.1 123.835 1140.73 124.944C1139.37 126.011 1138.68 127.696 1138.68 130C1138.68 131.749 1139.05 133.093 1139.77 134.032C1140.5 134.971 1141.52 135.44 1142.84 135.44ZM1164.67 116.24C1164.67 114.064 1164.37 112.464 1163.78 111.44C1163.18 110.373 1161.99 109.84 1160.19 109.84H1159.87V107.92H1177.03C1180.99 107.92 1184.13 108.581 1186.43 109.904C1188.78 111.227 1189.95 113.125 1189.95 115.6C1189.95 117.477 1189.25 118.992 1187.84 120.144C1186.43 121.253 1184.43 121.979 1181.83 122.32C1184.68 122.704 1186.97 123.536 1188.67 124.816C1190.38 126.053 1191.23 127.675 1191.23 129.68C1191.23 135.227 1186.5 138 1177.03 138H1164.67V116.24ZM1175.23 120.72C1176.94 120.72 1178.37 120.272 1179.52 119.376C1180.72 118.437 1181.31 117.179 1181.31 115.6C1181.31 113.936 1180.76 112.677 1179.65 111.824C1178.58 110.928 1177.32 110.48 1175.87 110.48C1174.85 110.48 1173.89 110.629 1172.99 110.928V120.72H1175.23ZM1175.87 135.44C1177.88 135.44 1179.5 134.949 1180.74 133.968C1181.97 132.944 1182.59 131.515 1182.59 129.68C1182.59 127.675 1181.93 126.16 1180.61 125.136C1179.33 124.112 1177.54 123.6 1175.23 123.6H1172.99V134.992C1173.89 135.291 1174.85 135.44 1175.87 135.44ZM1197.16 138.96C1196.52 138.96 1195.82 138.896 1195.05 138.768C1194.28 138.64 1193.71 138.512 1193.32 138.384V136.528C1194.99 136.272 1196.39 135.547 1197.55 134.352C1198.7 133.115 1199.61 131.003 1200.3 128.016C1201.02 124.987 1201.39 120.848 1201.39 115.6C1201.39 113.723 1201.04 112.293 1200.36 111.312C1199.72 110.331 1198.46 109.84 1196.59 109.84V107.92H1225.39V138H1217.07V110.8H1208.04V115.6C1208.04 131.173 1204.41 138.96 1197.16 138.96ZM1246.91 138.64C1243.8 138.64 1241.07 137.957 1238.72 136.592C1236.42 135.184 1234.65 133.307 1233.41 130.96C1232.17 128.571 1231.55 125.904 1231.55 122.96C1231.55 120.016 1232.17 117.371 1233.41 115.024C1234.65 112.635 1236.42 110.757 1238.72 109.392C1241.07 107.984 1243.8 107.28 1246.91 107.28C1250.03 107.28 1252.74 107.984 1255.04 109.392C1257.39 110.757 1259.18 112.635 1260.42 115.024C1261.66 117.371 1262.27 120.016 1262.27 122.96C1262.27 125.904 1261.66 128.571 1260.42 130.96C1259.18 133.307 1257.39 135.184 1255.04 136.592C1252.74 137.957 1250.03 138.64 1246.91 138.64ZM1246.91 135.76C1249.09 135.76 1250.75 134.587 1251.91 132.24C1253.06 129.893 1253.63 126.8 1253.63 122.96C1253.63 119.12 1253.06 116.027 1251.91 113.68C1250.75 111.333 1249.09 110.16 1246.91 110.16C1244.74 110.16 1243.07 111.333 1241.92 113.68C1240.77 116.027 1240.19 119.12 1240.19 122.96C1240.19 126.8 1240.77 129.893 1241.92 132.24C1243.07 134.587 1244.74 135.76 1246.91 135.76ZM1269.3 116.24C1269.3 114.064 1269 112.464 1268.4 111.44C1267.81 110.373 1266.61 109.84 1264.82 109.84H1264.5V107.92H1281.65C1285.62 107.92 1288.75 108.581 1291.06 109.904C1293.41 111.227 1294.58 113.125 1294.58 115.6C1294.58 117.477 1293.87 118.992 1292.47 120.144C1291.06 121.253 1289.05 121.979 1286.45 122.32C1289.31 122.704 1291.59 123.536 1293.3 124.816C1295.01 126.053 1295.86 127.675 1295.86 129.68C1295.86 135.227 1291.12 138 1281.65 138H1269.3V116.24ZM1279.86 120.72C1281.57 120.72 1282.99 120.272 1284.15 119.376C1285.34 118.437 1285.94 117.179 1285.94 115.6C1285.94 113.936 1285.38 112.677 1284.27 111.824C1283.21 110.928 1281.95 110.48 1280.5 110.48C1279.47 110.48 1278.51 110.629 1277.62 110.928V120.72H1279.86ZM1280.5 135.44C1282.5 135.44 1284.13 134.949 1285.36 133.968C1286.6 132.944 1287.22 131.515 1287.22 129.68C1287.22 127.675 1286.56 126.16 1285.23 125.136C1283.95 124.112 1282.16 123.6 1279.86 123.6H1277.62V134.992C1278.51 135.291 1279.47 135.44 1280.5 135.44ZM1303.18 116.24C1303.18 114.064 1302.88 112.464 1302.29 111.44C1301.69 110.373 1300.49 109.84 1298.7 109.84H1298.06V107.92H1305.74C1307.28 107.92 1308.45 108.176 1309.26 108.688C1310.07 109.2 1310.65 110.053 1310.99 111.248C1311.33 112.4 1311.5 114.064 1311.5 116.24V121.36H1321.74V107.92H1330.06V129.68C1330.06 131.856 1330.36 133.477 1330.96 134.544C1331.55 135.568 1332.75 136.08 1334.54 136.08H1335.18V138H1327.5C1325.97 138 1324.79 137.765 1323.98 137.296C1323.17 136.784 1322.59 135.952 1322.25 134.8C1321.91 133.605 1321.74 131.899 1321.74 129.68V124.24H1311.5V138H1303.18V116.24ZM1341.01 148.56C1343.36 148.56 1345.26 148.112 1346.71 147.216C1348.16 146.32 1349.33 144.699 1350.23 142.352L1351.57 138.896L1340.05 113.68C1338.65 110.608 1336.66 108.901 1334.1 108.56V107.28H1339.73C1341.61 107.28 1343.27 107.749 1344.73 108.688C1346.18 109.584 1347.29 110.821 1348.05 112.4L1355.41 128.528L1363.22 107.92H1366.61L1353.69 142.16C1352.49 145.488 1351.1 147.749 1349.53 148.944C1347.95 150.181 1345.96 150.8 1343.57 150.8H1341.01V148.56Z" fill="#FF6666"/>
<path d="M1565.64 99.3973C1576.24 117.719 1576.24 140.281 1565.64 158.603L1525.85 227.34C1515.23 245.691 1495.58 257.001 1474.31 257.001L445.901 257C424.634 257 404.987 245.691 394.365 227.34L354.58 158.603C343.976 140.281 343.976 117.719 354.58 99.3973L394.365 30.6599C404.987 12.3089 424.634 0.999877 445.901 0.999878L1474.31 0.999985C1495.58 0.999986 1515.23 12.309 1525.85 30.66L1565.64 99.3973Z" stroke="#FF6666" stroke-width="2"/>
<rect y="127" width="345" height="2" fill="#FF6666"/>
<rect x="1575" y="127" width="345" height="2" fill="#FF6666"/>
<rect x="763" y="237" width="394" height="58" rx="17" fill="#FF6666"/>
<path d="M798.783 258.72C798.783 257.632 798.633 256.832 798.335 256.32C798.036 255.787 797.439 255.52 796.543 255.52H795.903V254.88H804.223C806.548 254.88 808.564 255.264 810.271 256.032C811.999 256.8 812.863 258.283 812.863 260.48C812.863 261.483 812.521 262.389 811.839 263.2C811.156 264.011 810.111 264.651 808.703 265.12C810.665 265.44 812.031 266.027 812.799 266.88C813.588 267.712 813.983 268.832 813.983 270.24C813.983 272.395 813.129 273.899 811.423 274.752C809.737 275.584 807.657 276 805.183 276H798.783V258.72ZM804.703 264.64C805.577 264.64 806.399 264.48 807.167 264.16C807.956 263.819 808.596 263.328 809.087 262.688C809.577 262.027 809.823 261.237 809.823 260.32C809.823 259.36 809.535 258.56 808.959 257.92C808.383 257.259 807.647 256.779 806.751 256.48C805.876 256.16 804.98 256 804.063 256C803.316 256 802.516 256.107 801.663 256.32V264.64H804.703ZM804.703 274.88C806.644 274.88 808.137 274.496 809.183 273.728C810.249 272.96 810.783 271.851 810.783 270.4C810.783 268.949 810.26 267.84 809.215 267.072C808.191 266.304 806.687 265.92 804.703 265.92H801.663V274.432C802.687 274.731 803.7 274.88 804.703 274.88ZM818.049 264.8C818.049 263.712 817.9 262.912 817.601 262.4C817.302 261.867 816.705 261.6 815.809 261.6H815.329V260.96H818.049C818.838 260.96 819.425 261.067 819.809 261.28C820.214 261.472 820.502 261.835 820.673 262.368C820.844 262.901 820.929 263.712 820.929 264.8V267.04H823.329C827.489 267.04 829.569 268.533 829.569 271.52C829.569 274.507 827.489 276 823.329 276H818.049V264.8ZM834.529 276C833.74 276 833.142 275.904 832.737 275.712C832.353 275.499 832.076 275.125 831.905 274.592C831.734 274.059 831.649 273.248 831.649 272.16V260.96H834.529V272.16C834.529 273.248 834.678 274.059 834.977 274.592C835.276 275.104 835.873 275.36 836.769 275.36H837.249V276H834.529ZM823.009 274.88C824.118 274.88 824.982 274.613 825.601 274.08C826.22 273.547 826.529 272.693 826.529 271.52C826.529 270.347 826.22 269.493 825.601 268.96C824.982 268.427 824.118 268.16 823.009 268.16C822.689 268.16 822.326 268.192 821.921 268.256C821.516 268.32 821.185 268.395 820.929 268.48V274.56C821.185 274.645 821.516 274.72 821.921 274.784C822.326 274.848 822.689 274.88 823.009 274.88ZM840.08 264.8C840.08 263.712 839.931 262.912 839.632 262.4C839.333 261.867 838.736 261.6 837.84 261.6H837.36V260.96H840.08C840.869 260.96 841.456 261.067 841.84 261.28C842.245 261.472 842.533 261.835 842.704 262.368C842.875 262.901 842.96 263.712 842.96 264.8V273.12L849.68 260.96H852.56V276H849.68V263.84L842.96 276H840.08V264.8ZM857.483 264.8C857.483 263.712 857.334 262.912 857.035 262.4C856.737 261.867 856.139 261.6 855.243 261.6H854.923V260.96H865.483C867.083 260.96 867.883 261.813 867.883 263.52V265.44H867.243C867.243 264.437 866.934 263.659 866.315 263.104C865.697 262.528 864.886 262.24 863.883 262.24H860.363V276H857.483V264.8ZM871.55 264.8C871.55 263.712 871.4 262.912 871.102 262.4C870.803 261.867 870.206 261.6 869.31 261.6H868.67V260.96H871.55C872.36 260.96 872.968 261.077 873.374 261.312C873.8 261.525 874.099 261.888 874.27 262.4H874.43C874.814 261.909 875.358 261.493 876.062 261.152C876.766 260.811 877.662 260.64 878.75 260.64C880.584 260.64 882.003 261.387 883.006 262.88C884.008 264.352 884.51 266.219 884.51 268.48C884.51 270.763 883.987 272.64 882.942 274.112C881.918 275.584 880.414 276.32 878.43 276.32C877.619 276.32 876.904 276.235 876.286 276.064C875.667 275.893 875.048 275.659 874.43 275.36V282.08H871.55V264.8ZM877.47 275.04C878.835 275.04 879.838 274.443 880.478 273.248C881.139 272.053 881.47 270.464 881.47 268.48C881.47 266.517 881.16 264.939 880.542 263.744C879.923 262.528 879.006 261.92 877.79 261.92C876.36 261.92 875.24 262.56 874.43 263.84V274.08C875.07 274.379 875.624 274.613 876.094 274.784C876.563 274.955 877.022 275.04 877.47 275.04ZM891.872 276.32C891.19 276.32 890.496 276.181 889.792 275.904C889.088 275.605 888.48 275.125 887.968 274.464C887.478 273.803 887.232 272.928 887.232 271.84C887.232 270.219 887.979 269.067 889.472 268.384C890.987 267.701 892.96 267.36 895.392 267.36H896.352C896.352 265.269 896.064 263.84 895.488 263.072C894.912 262.304 894.08 261.92 892.992 261.92C892.032 261.92 891.264 262.123 890.688 262.528C890.112 262.933 889.707 263.637 889.472 264.64H888.032C888.032 263.915 888.075 263.349 888.16 262.944C888.246 262.517 888.47 262.123 888.832 261.76C889.216 261.376 889.846 261.099 890.72 260.928C891.616 260.736 892.587 260.64 893.632 260.64C895.36 260.64 896.726 261.109 897.728 262.048C898.731 262.965 899.232 264.736 899.232 267.36V276H897.632L896.512 274.56H896.352C895.968 275.051 895.403 275.467 894.656 275.808C893.91 276.149 892.982 276.32 891.872 276.32ZM893.312 274.88C894.016 274.88 894.603 274.709 895.072 274.368C895.542 274.027 895.968 273.557 896.352 272.96V268.64H895.392C893.814 268.64 892.566 268.939 891.648 269.536C890.731 270.112 890.272 270.88 890.272 271.84C890.272 272.821 890.56 273.579 891.136 274.112C891.734 274.624 892.459 274.88 893.312 274.88ZM904.143 264.8C904.143 263.712 903.993 262.912 903.695 262.4C903.396 261.867 902.799 261.6 901.903 261.6H901.423V260.96H904.143C904.932 260.96 905.519 261.067 905.903 261.28C906.308 261.472 906.596 261.835 906.767 262.368C906.937 262.901 907.023 263.712 907.023 264.8V273.12L913.743 260.96H916.623V276H913.743V263.84L907.023 276H904.143V264.8ZM910.383 259.328C908.548 259.328 907.161 258.475 906.223 256.768L906.863 256.288C907.289 256.715 907.769 257.035 908.303 257.248C908.836 257.461 909.529 257.568 910.383 257.568C911.236 257.568 911.929 257.461 912.463 257.248C912.996 257.035 913.476 256.715 913.903 256.288L914.543 256.768C913.604 258.475 912.217 259.328 910.383 259.328ZM935.402 276.32C933.866 276.32 932.565 275.979 931.498 275.296C930.453 274.592 929.663 273.653 929.13 272.48C928.618 271.285 928.362 269.952 928.362 268.48C928.362 267.008 928.618 265.685 929.13 264.512C929.663 263.317 930.453 262.379 931.498 261.696C932.565 260.992 933.866 260.64 935.402 260.64C937.749 260.64 939.295 261.013 940.042 261.76C940.405 262.123 940.629 262.571 940.714 263.104C940.799 263.616 940.842 264.555 940.842 265.92H940.202C940.117 264.597 939.701 263.605 938.954 262.944C938.207 262.261 937.237 261.92 936.042 261.92C934.506 261.92 933.343 262.528 932.554 263.744C931.786 264.96 931.402 266.539 931.402 268.48C931.402 270.421 931.786 272 932.554 273.216C933.343 274.432 934.506 275.04 936.042 275.04C937.13 275.04 938.026 274.837 938.73 274.432C939.434 274.005 940.085 273.355 940.682 272.48L941.322 272.96C940.618 274.155 939.786 275.019 938.826 275.552C937.866 276.064 936.725 276.32 935.402 276.32ZM945.015 264.8C945.015 263.712 944.865 262.912 944.567 262.4C944.268 261.867 943.671 261.6 942.775 261.6H942.455V260.96H950.295C952.087 260.96 953.548 261.259 954.679 261.856C955.809 262.453 956.375 263.435 956.375 264.8C956.375 265.717 956.119 266.453 955.607 267.008C955.095 267.541 954.284 267.925 953.175 268.16C954.412 268.395 955.361 268.832 956.023 269.472C956.684 270.091 957.015 270.88 957.015 271.84C957.015 273.355 956.417 274.432 955.223 275.072C954.049 275.691 952.407 276 950.295 276H945.015V264.8ZM949.655 267.52C950.807 267.52 951.703 267.285 952.343 266.816C953.004 266.347 953.335 265.675 953.335 264.8C953.335 263.925 953.025 263.253 952.407 262.784C951.788 262.315 950.977 262.08 949.975 262.08C949.655 262.08 949.292 262.112 948.887 262.176C948.481 262.24 948.151 262.315 947.895 262.4V267.52H949.655ZM949.975 274.88C952.641 274.88 953.975 273.867 953.975 271.84C953.975 269.813 952.535 268.8 949.655 268.8H947.895V274.56C948.151 274.645 948.481 274.72 948.887 274.784C949.292 274.848 949.655 274.88 949.975 274.88ZM966.902 276.32C965.451 276.32 964.193 275.979 963.126 275.296C962.059 274.592 961.249 273.643 960.694 272.448C960.139 271.253 959.862 269.931 959.862 268.48C959.862 267.029 960.139 265.707 960.694 264.512C961.249 263.317 962.059 262.379 963.126 261.696C964.193 260.992 965.451 260.64 966.902 260.64C968.353 260.64 969.611 260.992 970.678 261.696C971.745 262.379 972.555 263.317 973.11 264.512C973.665 265.707 973.942 267.029 973.942 268.48C973.942 269.931 973.665 271.253 973.11 272.448C972.555 273.643 971.745 274.592 970.678 275.296C969.611 275.979 968.353 276.32 966.902 276.32ZM966.902 275.04C967.691 275.04 968.385 274.752 968.982 274.176C969.601 273.6 970.07 272.811 970.39 271.808C970.731 270.805 970.902 269.696 970.902 268.48C970.902 267.264 970.731 266.155 970.39 265.152C970.07 264.149 969.601 263.36 968.982 262.784C968.385 262.208 967.691 261.92 966.902 261.92C966.113 261.92 965.409 262.208 964.79 262.784C964.193 263.36 963.723 264.149 963.382 265.152C963.062 266.155 962.902 267.264 962.902 268.48C962.902 269.696 963.062 270.805 963.382 271.808C963.723 272.811 964.193 273.6 964.79 274.176C965.409 274.752 966.113 275.04 966.902 275.04ZM978.143 264.8C978.143 263.712 977.993 262.912 977.695 262.4C977.396 261.867 976.799 261.6 975.903 261.6H975.423V260.96H978.143C978.932 260.96 979.519 261.067 979.903 261.28C980.308 261.472 980.596 261.835 980.767 262.368C980.937 262.901 981.023 263.712 981.023 264.8V273.12L987.743 260.96H990.623V276H987.743V263.84L981.023 276H978.143V264.8ZM984.383 259.328C982.548 259.328 981.161 258.475 980.223 256.768L980.863 256.288C981.289 256.715 981.769 257.035 982.303 257.248C982.836 257.461 983.529 257.568 984.383 257.568C985.236 257.568 985.929 257.461 986.463 257.248C986.996 257.035 987.476 256.715 987.903 256.288L988.543 256.768C987.604 258.475 986.217 259.328 984.383 259.328ZM1003.55 264.8C1003.55 263.712 1003.4 262.912 1003.1 262.4C1002.8 261.867 1002.2 261.6 1001.31 261.6H1000.99V260.96H1015.71V276H1012.83V262.24H1006.43V276H1003.55V264.8ZM1026.5 276.32C1025.04 276.32 1023.79 275.979 1022.72 275.296C1021.65 274.592 1020.84 273.643 1020.29 272.448C1019.73 271.253 1019.46 269.931 1019.46 268.48C1019.46 267.029 1019.73 265.707 1020.29 264.512C1020.84 263.317 1021.65 262.379 1022.72 261.696C1023.79 260.992 1025.04 260.64 1026.5 260.64C1027.95 260.64 1029.2 260.992 1030.27 261.696C1031.34 262.379 1032.15 263.317 1032.7 264.512C1033.26 265.707 1033.54 267.029 1033.54 268.48C1033.54 269.931 1033.26 271.253 1032.7 272.448C1032.15 273.643 1031.34 274.592 1030.27 275.296C1029.2 275.979 1027.95 276.32 1026.5 276.32ZM1026.5 275.04C1027.28 275.04 1027.98 274.752 1028.58 274.176C1029.19 273.6 1029.66 272.811 1029.98 271.808C1030.32 270.805 1030.5 269.696 1030.5 268.48C1030.5 267.264 1030.32 266.155 1029.98 265.152C1029.66 264.149 1029.19 263.36 1028.58 262.784C1027.98 262.208 1027.28 261.92 1026.5 261.92C1025.71 261.92 1025 262.208 1024.38 262.784C1023.79 263.36 1023.32 264.149 1022.98 265.152C1022.66 266.155 1022.5 267.264 1022.5 268.48C1022.5 269.696 1022.66 270.805 1022.98 271.808C1023.32 272.811 1023.79 273.6 1024.38 274.176C1025 274.752 1025.71 275.04 1026.5 275.04ZM1034.87 275.84C1034.87 275.52 1034.98 275.253 1035.19 275.04C1035.4 274.827 1035.67 274.72 1035.99 274.72H1036.95C1037.61 273.248 1038.09 271.637 1038.39 269.888C1038.71 268.117 1038.87 266.421 1038.87 264.8C1038.87 263.712 1038.72 262.912 1038.42 262.4C1038.12 261.867 1037.53 261.6 1036.63 261.6V260.96H1049.43V274.72H1050.71C1051.03 274.72 1051.3 274.827 1051.51 275.04C1051.72 275.253 1051.83 275.52 1051.83 275.84V280.96H1050.55C1050.38 279.168 1050.04 277.888 1049.53 277.12C1049.02 276.373 1048.24 276 1047.19 276H1039.51C1038.47 276 1037.69 276.373 1037.18 277.12C1036.66 277.888 1036.32 279.168 1036.15 280.96H1034.87V275.84ZM1046.55 274.72V262.24H1040.95C1040.95 265.035 1040.81 267.424 1040.54 269.408C1040.26 271.371 1039.81 273.141 1039.19 274.72H1046.55ZM1058.5 276.32C1057.81 276.32 1057.12 276.181 1056.42 275.904C1055.71 275.605 1055.11 275.125 1054.59 274.464C1054.1 273.803 1053.86 272.928 1053.86 271.84C1053.86 270.219 1054.6 269.067 1056.1 268.384C1057.61 267.701 1059.59 267.36 1062.02 267.36H1062.98C1062.98 265.269 1062.69 263.84 1062.11 263.072C1061.54 262.304 1060.71 261.92 1059.62 261.92C1058.66 261.92 1057.89 262.123 1057.31 262.528C1056.74 262.933 1056.33 263.637 1056.1 264.64H1054.66C1054.66 263.915 1054.7 263.349 1054.79 262.944C1054.87 262.517 1055.09 262.123 1055.46 261.76C1055.84 261.376 1056.47 261.099 1057.35 260.928C1058.24 260.736 1059.21 260.64 1060.26 260.64C1061.99 260.64 1063.35 261.109 1064.35 262.048C1065.36 262.965 1065.86 264.736 1065.86 267.36V276H1064.26L1063.14 274.56H1062.98C1062.59 275.051 1062.03 275.467 1061.28 275.808C1060.53 276.149 1059.61 276.32 1058.5 276.32ZM1059.94 274.88C1060.64 274.88 1061.23 274.709 1061.7 274.368C1062.17 274.027 1062.59 273.557 1062.98 272.96V268.64H1062.02C1060.44 268.64 1059.19 268.939 1058.27 269.536C1057.36 270.112 1056.9 270.88 1056.9 271.84C1056.9 272.821 1057.19 273.579 1057.76 274.112C1058.36 274.624 1059.08 274.88 1059.94 274.88ZM1070.8 264.8C1070.8 263.712 1070.65 262.912 1070.35 262.4C1070.05 261.867 1069.46 261.6 1068.56 261.6H1067.92V260.96H1070.8C1071.61 260.96 1072.22 261.077 1072.62 261.312C1073.05 261.525 1073.35 261.888 1073.52 262.4H1073.68C1074.06 261.909 1074.61 261.493 1075.31 261.152C1076.02 260.811 1076.91 260.64 1078 260.64C1079.83 260.64 1081.25 261.387 1082.26 262.88C1083.26 264.352 1083.76 266.219 1083.76 268.48C1083.76 270.763 1083.24 272.64 1082.19 274.112C1081.17 275.584 1079.66 276.32 1077.68 276.32C1076.87 276.32 1076.15 276.235 1075.54 276.064C1074.92 275.893 1074.3 275.659 1073.68 275.36V282.08H1070.8V264.8ZM1076.72 275.04C1078.08 275.04 1079.09 274.443 1079.73 273.248C1080.39 272.053 1080.72 270.464 1080.72 268.48C1080.72 266.517 1080.41 264.939 1079.79 263.744C1079.17 262.528 1078.26 261.92 1077.04 261.92C1075.61 261.92 1074.49 262.56 1073.68 263.84V274.08C1074.32 274.379 1074.87 274.613 1075.34 274.784C1075.81 274.955 1076.27 275.04 1076.72 275.04ZM1093.71 276.32C1092.26 276.32 1091.01 275.979 1089.94 275.296C1088.87 274.592 1088.06 273.643 1087.51 272.448C1086.95 271.253 1086.67 269.931 1086.67 268.48C1086.67 267.029 1086.95 265.707 1087.51 264.512C1088.06 263.317 1088.87 262.379 1089.94 261.696C1091.01 260.992 1092.26 260.64 1093.71 260.64C1095.17 260.64 1096.42 260.992 1097.49 261.696C1098.56 262.379 1099.37 263.317 1099.92 264.512C1100.48 265.707 1100.75 267.029 1100.75 268.48C1100.75 269.931 1100.48 271.253 1099.92 272.448C1099.37 273.643 1098.56 274.592 1097.49 275.296C1096.42 275.979 1095.17 276.32 1093.71 276.32ZM1093.71 275.04C1094.5 275.04 1095.2 274.752 1095.79 274.176C1096.41 273.6 1096.88 272.811 1097.2 271.808C1097.54 270.805 1097.71 269.696 1097.71 268.48C1097.71 267.264 1097.54 266.155 1097.2 265.152C1096.88 264.149 1096.41 263.36 1095.79 262.784C1095.2 262.208 1094.5 261.92 1093.71 261.92C1092.93 261.92 1092.22 262.208 1091.6 262.784C1091.01 263.36 1090.54 264.149 1090.19 265.152C1089.87 266.155 1089.71 267.264 1089.71 268.48C1089.71 269.696 1089.87 270.805 1090.19 271.808C1090.54 272.811 1091.01 273.6 1091.6 274.176C1092.22 274.752 1092.93 275.04 1093.71 275.04ZM1116.25 276.32C1114.52 276.32 1112.98 275.467 1111.61 273.76L1107.93 269.12V276H1105.05V264.8C1105.05 263.712 1104.9 262.912 1104.6 262.4C1104.3 261.867 1103.71 261.6 1102.81 261.6H1102.17V260.96H1105.05C1105.84 260.96 1106.43 261.067 1106.81 261.28C1107.22 261.472 1107.5 261.835 1107.68 262.368C1107.85 262.901 1107.93 263.712 1107.93 264.8V268.64L1111.93 263.04C1112.42 262.357 1112.99 261.845 1113.63 261.504C1114.29 261.141 1115.11 260.96 1116.09 260.96H1116.89V261.76C1115.65 261.76 1114.69 262.24 1114.01 263.2L1110.49 268.16L1114.17 272.8C1114.77 273.568 1115.36 274.165 1115.93 274.592C1116.53 275.019 1117.17 275.285 1117.85 275.392V276C1117.38 276.213 1116.85 276.32 1116.25 276.32ZM1120.93 271.04L1120.35 254.88H1123.36L1122.78 271.04H1120.93ZM1121.85 276.448C1121.38 276.448 1120.98 276.277 1120.64 275.936C1120.3 275.595 1120.13 275.179 1120.13 274.688C1120.13 274.219 1120.3 273.824 1120.64 273.504C1120.98 273.163 1121.38 272.992 1121.85 272.992C1122.32 272.992 1122.73 273.163 1123.07 273.504C1123.41 273.824 1123.58 274.219 1123.58 274.688C1123.58 275.179 1123.41 275.595 1123.07 275.936C1122.73 276.277 1122.32 276.448 1121.85 276.448Z" fill="white"/>
</svg>
