<svg width="800" height="800" viewBox="0 0 32 32" data-name="Layer 10" id="Layer_10" xmlns="http://www.w3.org/2000/svg"><defs><style>.cls-1{fill:none;stroke:#000;stroke-miterlimit:10;stroke-width:.75px}</style></defs><circle class="cls-1" cx="16" cy="16" r="14"/><path class="cls-1" d="M2 16h28M16 2v27.99M7.86 4.61c.21 1.94.96 3.32 2.02 4.9 1.32 1.97 1.36 4.19 1.1 6.48"/><path class="cls-1" d="M7.86 27.09c.21-1.94.96-3.32 2.02-4.9 1.32-1.97 1.36-4.19 1.1-6.48M24.1 4.61c-.21 1.94-.96 3.32-2.02 4.9-1.32 1.97-1.36 4.19-1.1 6.48"/><path class="cls-1" d="M24.1 27.09c-.21-1.94-.96-3.32-2.02-4.9-1.32-1.97-1.36-4.19-1.1-6.48"/></svg>