<svg version="1.0" xmlns="http://www.w3.org/2000/svg" width="800" height="800" viewBox="0 0 64 64" xml:space="preserve"><g fill="#F76D57"><path d="M2 15.998v30a2 2 0 0 0 2 2h12v-4H7a1 1 0 0 1-1-1v-24a1 1 0 0 1 1-1h9v-4H4a2 2 0 0 0-2 2zM18 60a2 2 0 0 0 2 2h36a2 2 0 0 0 2-2v-4H18v4zM56 15.998a7.952 7.952 0 0 1-4.309-1.268 5.98 5.98 0 0 1-8.232 1.104A7.964 7.964 0 0 1 38 17.998a7.97 7.97 0 0 1-5.62-2.311A7.989 7.989 0 0 1 21.389 13.5a5.98 5.98 0 0 1-2.389.498c-.342 0-.674-.035-1-.09V54h40V15.998l.354-.354a7.933 7.933 0 0 1-2.354.354z"/></g><path fill="#F9EBB2" d="M56 13.998a5.97 5.97 0 0 1-3.343-1.018 6.05 6.05 0 0 1-1.685-1.715 3.96 3.96 0 0 1-.825 2.174A3.978 3.978 0 0 1 47 14.998a3.987 3.987 0 0 1-3.629-2.338 6.009 6.009 0 0 1-1.309 1.742A5.964 5.964 0 0 1 38 15.998a5.982 5.982 0 0 1-4.092-1.619 6.021 6.021 0 0 1-1.233-1.625 6.058 6.058 0 0 1-1.532 1.348 5.97 5.97 0 0 1-3.143.896 5.991 5.991 0 0 1-5.827-4.59 4.018 4.018 0 0 1-1.693 1.299 3.963 3.963 0 0 1-1.48.291 4 4 0 0 1 0-8c.839 0 1.616.26 2.26.703a3.998 3.998 0 0 1 1.369 1.637 5.979 5.979 0 0 1 1.308-1.746A5.97 5.97 0 0 1 28 2.998c1.583 0 3.02.617 4.092 1.619a6.043 6.043 0 0 1 1.233 1.623 6.097 6.097 0 0 1 1.532-1.348 5.968 5.968 0 0 1 6.312.019c.188-.66.524-1.26.996-1.732A3.985 3.985 0 0 1 45 1.999a3.99 3.99 0 0 1 3.747 2.641c.08.221.145.449.185.684.503.17.978.402 1.41.693.143-.406.326-.791.548-1.15A5.988 5.988 0 0 1 56 2a6 6 0 0 1 6 6 6 6 0 0 1-6 5.998z"/><g fill="#394240"><path d="M38 19.998a1 1 0 0 0-1 1v26a1 1 0 1 0 2 0v-26a1 1 0 0 0-1-1zM48 19.998a1 1 0 0 0-1 1v26a1 1 0 1 0 2 0v-26a1 1 0 0 0-1-1zM28 19.998a1 1 0 0 0-1 1v26a1 1 0 1 0 2 0v-26a1 1 0 0 0-1-1z"/><path d="M56-.002a7.974 7.974 0 0 0-5.987 2.707 5.99 5.99 0 0 0-9.752-.377 7.949 7.949 0 0 0-6.641.981A7.97 7.97 0 0 0 28 .998a7.964 7.964 0 0 0-5.459 2.164A5.969 5.969 0 0 0 19 1.998a6 6 0 0 0-6 6c0 1.539.584 2.938 1.537 4H4c-2.211 0-4 1.789-4 4v30c0 2.211 1.789 4 4 4h12V60c0 2.211 1.789 4 4 4h36c2.211 0 4-1.789 4-4V14.92a7.994 7.994 0 0 0 4-6.922 8 8 0 0 0-8-8zm-40 42H8v-22h8v22zm0-24H7a1 1 0 0 0-1 1v24a1 1 0 0 0 1 1h9v4H4a2 2 0 0 1-2-2v-30a2 2 0 0 1 2-2h12v4zM58 60a2 2 0 0 1-2 2H20a2 2 0 0 1-2-2v-4h40v4zm0-44.002V54H18V13.908c.326.055.658.09 1 .09.85 0 1.656-.18 2.389-.498a7.989 7.989 0 0 0 10.991 2.187A7.97 7.97 0 0 0 38 17.998a7.964 7.964 0 0 0 5.459-2.164 5.979 5.979 0 0 0 8.232-1.104A7.95 7.95 0 0 0 56 15.998c.819 0 1.609-.123 2.354-.354l-.354.354zm-2-2a5.97 5.97 0 0 1-3.343-1.018 6.05 6.05 0 0 1-1.685-1.715 3.96 3.96 0 0 1-.825 2.174A3.978 3.978 0 0 1 47 14.998a3.987 3.987 0 0 1-3.629-2.338 6.009 6.009 0 0 1-1.309 1.742A5.964 5.964 0 0 1 38 15.998a5.982 5.982 0 0 1-4.092-1.619 6.021 6.021 0 0 1-1.233-1.625 6.058 6.058 0 0 1-1.532 1.348 5.97 5.97 0 0 1-3.143.896 5.991 5.991 0 0 1-5.827-4.59 4.018 4.018 0 0 1-1.693 1.299 3.963 3.963 0 0 1-1.48.291 4 4 0 0 1 0-8c.839 0 1.616.26 2.26.703a3.998 3.998 0 0 1 1.369 1.637 5.979 5.979 0 0 1 1.308-1.746A5.97 5.97 0 0 1 28 2.998c1.583 0 3.02.617 4.092 1.619a6.043 6.043 0 0 1 1.233 1.623 6.097 6.097 0 0 1 1.532-1.348 5.968 5.968 0 0 1 6.312.019c.188-.66.524-1.26.996-1.732A3.985 3.985 0 0 1 45 1.999a3.99 3.99 0 0 1 3.747 2.641c.08.221.145.449.185.684.503.17.978.402 1.41.693.143-.406.326-.791.548-1.15A5.988 5.988 0 0 1 56 2a6 6 0 0 1 6 6 6 6 0 0 1-6 5.998z"/></g><path opacity=".2" d="M16 17.998H7a1 1 0 0 0-1 1v24a1 1 0 0 0 1 1h9v4H4a2 2 0 0 1-2-2v-30a2 2 0 0 1 2-2h12v4zM58 60a2 2 0 0 1-2 2H20a2 2 0 0 1-2-2v-4h40v4z"/></svg>