<svg height="800" width="800" xmlns="http://www.w3.org/2000/svg" viewBox="0 0 469.988 469.988" xml:space="preserve"><path style="fill:#fff" d="M219.154 264.417a154.145 154.145 0 0 1-7.01-6.572 154.756 154.756 0 0 1-6.573-7.011L17.801 438.603c-3.745 3.744-3.745 9.838 0 13.584 3.744 3.744 9.839 3.745 13.584-.001l187.769-187.769z"/><path style="fill:#e7453f" d="M415.142 54.846C389.447 29.151 355.284 15 318.946 15c-36.339 0-70.502 14.15-96.196 39.846-25.695 25.694-39.846 59.857-39.846 96.196 0 27.995 8.407 54.695 24.013 77.23l66.194-66.194c9.594-9.592 25.203-9.592 34.797 0 9.594 9.595 9.594 25.204.001 34.798l-7.071 7.071a7.502 7.502 0 0 1-10.607 0l-10.605 10.605a7.5 7.5 0 0 1 0 10.607l-37.91 37.91c22.536 15.606 49.235 24.013 77.231 24.013 36.338 0 70.501-14.15 96.195-39.846 25.696-25.694 39.847-59.857 39.847-96.195-.001-36.337-14.151-70.501-39.847-96.195zm-78.599-16.175c-.366 4.127-4.013 7.165-8.134 6.808-31.44-2.791-62.221 8.354-84.445 30.58-1.465 1.464-3.385 2.196-5.304 2.196s-3.839-.732-5.303-2.196a7.5 7.5 0 0 1 0-10.607c25.375-25.374 60.504-38.101 96.378-34.914a7.5 7.5 0 0 1 6.808 8.133zm67.993 37.387c-1.465 1.465-3.385 2.197-5.304 2.197s-3.839-.732-5.303-2.196c-10.919-10.918-23.763-19.146-38.176-24.453a7.5 7.5 0 1 1 5.184-14.076c16.465 6.064 31.133 15.458 43.598 27.922a7.498 7.498 0 0 1 .001 10.606z"/><path style="fill:#f5b5b2" d="M290.23 203.948a7.5 7.5 0 0 1 0-10.607l7.071-7.071c3.745-3.744 3.745-9.838 0-13.584-3.744-3.744-9.839-3.745-13.583.001l-67.522 67.522a138.835 138.835 0 0 0 6.553 7.03 138.835 138.835 0 0 0 7.03 6.553l39.238-39.238a7.502 7.502 0 0 1 10.607 0l10.606-10.606z"/><path style="fill:#fff" d="M360.937 37.53a7.501 7.501 0 0 0-5.184 14.076c14.413 5.308 27.257 13.535 38.176 24.453 1.464 1.464 3.384 2.196 5.303 2.196s3.839-.732 5.304-2.197a7.498 7.498 0 0 0-.001-10.606c-12.465-12.464-27.133-21.858-43.598-27.922zM329.735 30.538c-35.874-3.187-71.004 9.54-96.378 34.914a7.5 7.5 0 0 0 10.607 10.607c22.225-22.226 53.005-33.371 84.445-30.58 4.121.357 7.768-2.681 8.134-6.808a7.5 7.5 0 0 0-6.808-8.133z"/><path style="fill:#3d2a20" d="M425.749 44.239C397.221 15.711 359.291 0 318.946 0s-78.275 15.711-106.803 44.238c-28.528 28.528-44.24 66.458-44.24 106.804 0 32.018 9.905 62.51 28.249 87.994L7.195 427.996c-9.593 9.594-9.593 25.203 0 34.798 4.797 4.796 11.098 7.194 17.398 7.194 6.301 0 12.602-2.398 17.399-7.194l188.959-188.959c25.484 18.344 55.977 28.249 87.995 28.249 40.345 0 78.274-15.711 106.802-44.238 28.529-28.528 44.24-66.458 44.24-106.803 0-40.346-15.711-78.276-44.239-106.804zM318.946 287.083c-27.996 0-54.696-8.407-77.231-24.013l37.91-37.91a7.5 7.5 0 0 0-10.607-10.607l-39.238 39.238a138.835 138.835 0 0 1-7.03-6.553 138.835 138.835 0 0 1-6.553-7.03l67.522-67.522c3.744-3.746 9.839-3.745 13.583-.001 3.745 3.746 3.745 9.84 0 13.584l-7.071 7.071a7.5 7.5 0 0 0 10.607 10.607l7.071-7.071c9.593-9.594 9.593-25.203-.001-34.798-9.594-9.592-25.203-9.592-34.797 0l-66.194 66.194c-15.606-22.536-24.013-49.235-24.013-77.23 0-36.339 14.151-70.502 39.846-96.196C248.444 29.151 282.607 15 318.946 15c36.338 0 70.501 14.15 96.195 39.846 25.696 25.694 39.847 59.857 39.847 96.196 0 36.338-14.15 70.501-39.847 96.195-25.694 25.696-59.857 39.846-96.195 39.846zM17.802 452.187c-3.745-3.746-3.745-9.84 0-13.584L205.57 250.834a154.756 154.756 0 0 0 6.573 7.011 154.145 154.145 0 0 0 7.01 6.572L31.386 452.186c-3.745 3.746-9.84 3.745-13.584.001z"/></svg>