<svg version="1.0" xmlns="http://www.w3.org/2000/svg" width="800" height="800" viewBox="0 0 64 64" xml:space="preserve"><g fill="#45AAB8"><path d="M27 8h10c17.495 0 18 21.544 18 24h2c0-2.661-.533-26-19-26H26C18.904 6 7 9.378 7 32h2C9 16.523 15.393 8 27 8zM58 34H6c-2.206 0-4 1.794-4 4v10c0 2.206 1.794 4 4 4h52c2.206 0 4-1.794 4-4V38c0-2.206-1.794-4-4-4z"/></g><g fill="#F9EBB2"><path d="M50.581 19.394C47.909 13.16 43.34 10 37 10H27c-7.299 0-16 3.816-16 22h5a8 8 0 0 1 16 0h21c0-1.633-.175-7.368-2.419-12.606z"/><path d="M24 26a6 6 0 0 0-6 6h12a6 6 0 0 0-6-6z"/></g><g fill="#394240"><path d="M58.982 32.088c.003-.031.018-.057.018-.088 0-2.866-.589-28-21-28H26C12.654 4 5 14.206 5 32c0 .031.015.057.018.088C2.176 32.559 0 35.027 0 38v10c0 3.309 2.691 6 6 6v5a1 1 0 0 0 1 1h8a1 1 0 0 0 1-1v-5h32v5a1 1 0 0 0 1 1h8a1 1 0 0 0 1-1v-5c3.309 0 6-2.691 6-6V38c0-2.973-2.176-5.441-5.018-5.912zM26 6h12c18.467 0 19 23.339 19 26h-2c0-2.456-.505-24-18-24H27C15.393 8 9 16.523 9 32H7C7 9.378 18.904 6 26 6zm-2 18a8 8 0 0 0-8 8h-5c0-18.184 8.701-22 16-22h10c6.34 0 10.909 3.16 13.581 9.394C52.825 24.632 53 30.367 53 32H32a8 8 0 0 0-8-8zm6 8H18a6 6 0 0 1 12 0zM14 58H8v-4h6v4zm42 0h-6v-4h6v4zm6-10c0 2.206-1.794 4-4 4H6c-2.206 0-4-1.794-4-4V38c0-2.206 1.794-4 4-4h52c2.206 0 4 1.794 4 4v10z"/><path d="M11 39c-2.206 0-4 1.794-4 4s1.794 4 4 4 4-1.794 4-4-1.794-4-4-4zm0 6c-1.103 0-2-.897-2-2s.897-2 2-2 2 .897 2 2-.897 2-2 2zM53 39c-2.206 0-4 1.794-4 4s1.794 4 4 4 4-1.794 4-4-1.794-4-4-4zm0 6c-1.103 0-2-.897-2-2s.897-2 2-2 2 .897 2 2-.897 2-2 2zM43 40H21a1 1 0 1 0 0 2h22a1 1 0 1 0 0-2zM43 44H21a1 1 0 1 0 0 2h22a1 1 0 1 0 0-2zM43.293 18.708a.997.997 0 0 0 1.414 0 .999.999 0 0 0 0-1.414l-2-2a.999.999 0 1 0-1.414 1.414l2 2zM43.293 23.707a.997.997 0 0 0 1.414 0 .999.999 0 0 0 0-1.414l-7-7a.999.999 0 1 0-1.414 1.414l7 7z"/></g><g fill="#506C7F"><path d="M8 54h6v4H8zM50 54h6v4h-6z"/></g><g fill="#F9EBB2"><circle cx="11" cy="43" r="2"/><circle cx="53" cy="43" r="2"/></g><path opacity=".15" fill="#231F20" d="M30 32H18a6 6 0 0 1 12 0z"/></svg>