<svg id="Layer_1" data-name="Layer 1" xmlns="http://www.w3.org/2000/svg" viewBox="0 0 512 512"><defs><style>.cls-3{fill:#eddc8a}</style></defs><rect y="115.2" width="512" height="128" rx="19.2" ry="19.2" style="fill:#6ace92"/><path d="M473.6 243.2V480a19.17 19.17 0 0 1-19.2 19.2H57.6A19.17 19.17 0 0 1 38.4 480V243.2Z" style="fill:#5ebc84"/><path class="cls-3" d="M204.8 115.2h102.4v384H204.8z"/><g style="opacity:.1"><path style="fill:#231f20" d="M38.4 243.2h435.2v38.4H38.4z"/></g><path class="cls-3" d="M307.2 12.8A70.38 70.38 0 0 0 256 34.88a70.41 70.41 0 0 0-113.92 80.32h62.72a32 32 0 1 1 32-32v32h38.4v-32a32 32 0 1 1 32 32h62.72A70.42 70.42 0 0 0 307.2 12.8Z"/></svg>