<svg version="1.0" xmlns="http://www.w3.org/2000/svg" width="800" height="800" viewBox="0 0 64 64" xml:space="preserve"><path fill="#394240" d="M60 0H4C1.789 0 0 1.789 0 4v56c0 2.211 1.789 4 4 4h56c2.211 0 4-1.789 4-4V4c0-2.211-1.789-4-4-4zm-9 2v38h-6V2h6zM35 2v38h-6V2h6zM19 2v38h-6V2h6zm-8 60H4a2 2 0 0 1-2-2V4c0-1.104.641-2 2-2h7v39a1 1 0 0 0 1 1h3v20h-4zm6 0V42h3a1 1 0 0 0 1-1V2h6v39a1 1 0 0 0 1 1h3v20H17zm16 0V42h3a1 1 0 0 0 1-1V2h6v39a1 1 0 0 0 1 1h3v20H33zm29-2a2 2 0 0 1-2 2H49V42h3a1 1 0 0 0 1-1V2h7c1.016 0 2 .896 2 2v56z"/><g fill="#506C7F"><path d="M45 2h6v38h-6zM29 2h6v38h-6zM13 2h6v38h-6z"/></g><g fill="#F9EBB2"><path d="M11 41V2H4c-1.359 0-2 .896-2 2v56a2 2 0 0 0 2 2h11V42h-3a1 1 0 0 1-1-1zM27 41V2h-6v39a1 1 0 0 1-1 1h-3v20h14V42h-3a1 1 0 0 1-1-1zM43 41V2h-6v39a1 1 0 0 1-1 1h-3v20h14V42h-3a1 1 0 0 1-1-1zM60 2h-7v39a1 1 0 0 1-1 1h-3v20h11a2 2 0 0 0 2-2V4c0-1.104-.984-2-2-2z"/></g></svg>