<svg version="1.0" xmlns="http://www.w3.org/2000/svg" width="800" height="800" viewBox="0 0 64 64" xml:space="preserve"><path fill="#B4CCB9" d="M55 60a2 2 0 0 1-2 2H11a2 2 0 0 1-2-2V14h46v46z"/><path fill="#F9EBB2" d="M56 6H8a2 2 0 0 0-2 2v4h52V8a2 2 0 0 0-2-2z"/><path fill="#506C7F" d="M36 2h-8a2 2 0 0 0-2 2h12a2 2 0 0 0-2-2z"/><g fill="#394240"><path d="M56 4H40c0-2.211-1.789-4-4-4h-8c-2.211 0-4 1.789-4 4H8C5.789 4 4 5.789 4 8v5a1 1 0 0 0 1 1h2v46c0 2.211 1.789 4 4 4h42c2.211 0 4-1.789 4-4V14h2a1 1 0 0 0 1-1V8c0-2.211-1.789-4-4-4zM28 2h8a2 2 0 0 1 2 2H26a2 2 0 0 1 2-2zm27 58a2 2 0 0 1-2 2H11a2 2 0 0 1-2-2V14h46v46zm3-48H6V8a2 2 0 0 1 2-2h48a2 2 0 0 1 2 2v4z"/><path d="M20 54a3 3 0 0 0 3-3V25a3 3 0 1 0-6 0v26a3 3 0 0 0 3 3zm-1-29a1 1 0 1 1 2 0v26a1 1 0 1 1-2 0V25zM32 54a3 3 0 0 0 3-3V25a3 3 0 1 0-6 0v26a3 3 0 0 0 3 3zm-1-29a1 1 0 1 1 2 0v26a1 1 0 1 1-2 0V25zM44 54a3 3 0 0 0 3-3V25a3 3 0 1 0-6 0v26a3 3 0 0 0 3 3zm-1-29a1 1 0 1 1 2 0v26a1 1 0 1 1-2 0V25z"/></g><g opacity=".15" fill="#231F20"><path d="M20 24a1 1 0 0 0-1 1v26a1 1 0 1 0 2 0V25a1 1 0 0 0-1-1zM32 24a1 1 0 0 0-1 1v26a1 1 0 1 0 2 0V25a1 1 0 0 0-1-1zM44 24a1 1 0 0 0-1 1v26a1 1 0 1 0 2 0V25a1 1 0 0 0-1-1z"/></g></svg>